<svg xmlns="http://www.w3.org/2000/svg" width="74.858" height="74.858" viewBox="0 0 74.858 74.858">
  <g id="Group_2099" data-name="Group 2099" transform="translate(-1862.924 -746.831)">
    <path id="Path_3327" data-name="Path 3327" d="M2063.658,818.772a7.068,7.068,0,1,0-5,12.066h0a7.068,7.068,0,0,0,5-12.066Zm-2.811,7.184a3.074,3.074,0,0,1-2.187.906h0a3.092,3.092,0,1,1,2.187-.906Z" transform="translate(-144.357 -53.461)" fill="#00abe9"/>
    <g id="Group_2096" data-name="Group 2096" transform="translate(1862.924 792.635)">
      <path id="Path_3328" data-name="Path 3328" d="M1864.912,957.322a1.988,1.988,0,0,1-1.406-3.394l11.5-11.494a1.988,1.988,0,0,1,2.812,2.811l-11.495,11.494A1.983,1.983,0,0,1,1864.912,957.322Z" transform="translate(-1862.924 -941.851)" fill="#00abe9"/>
    </g>
    <g id="Group_2097" data-name="Group 2097" transform="translate(1865.494 803.162)">
      <path id="Path_3329" data-name="Path 3329" d="M1875.854,1002.633a1.988,1.988,0,0,1-1.405-3.394l11.98-11.981a1.988,1.988,0,1,1,2.812,2.812l-11.981,11.98A1.982,1.982,0,0,1,1875.854,1002.633Z" transform="translate(-1873.866 -986.676)" fill="#00abe9"/>
    </g>
    <g id="Group_2098" data-name="Group 2098" transform="translate(1876.508 806.219)">
      <path id="Path_3330" data-name="Path 3330" d="M1922.749,1015.16a1.987,1.987,0,0,1-1.406-3.393l11.5-11.5a1.988,1.988,0,0,1,2.811,2.812l-11.5,11.495A1.981,1.981,0,0,1,1922.749,1015.16Z" transform="translate(-1920.76 -999.69)" fill="#00abe9"/>
    </g>
    <path id="Path_3331" data-name="Path 3331" d="M1950.432,747.413a1.988,1.988,0,0,0-1.722-.557,73.517,73.517,0,0,0-13.249,3.811,80.544,80.544,0,0,0-12.438,5.99,65.554,65.554,0,0,0-12.583,9.641l-15.013,2.923a1.99,1.99,0,0,0-1.024.543l-13.6,13.558a1.988,1.988,0,0,0,1.4,3.4,2.081,2.081,0,0,0,.38-.036l15.341-2.988q-1.5,2.94-2.8,6.1a1.988,1.988,0,0,0,.433,2.162l3.758,3.758-3.491,3.491a1.988,1.988,0,1,0,2.811,2.812l3.492-3.491,3.758,3.758a1.985,1.985,0,0,0,2.162.433q3.163-1.3,6.1-2.8l-2.985,15.341a1.987,1.987,0,0,0,3.358,1.782l13.558-13.6a1.987,1.987,0,0,0,.544-1.023l2.922-15.012a65.621,65.621,0,0,0,9.643-12.583,80.737,80.737,0,0,0,5.99-12.439,73.63,73.63,0,0,0,3.811-13.249A1.989,1.989,0,0,0,1950.432,747.413Zm-62.2,34.118,8.552-8.524,9.2-1.792a67.94,67.94,0,0,0-5.546,7.939Zm36.607,19.531-8.524,8.552,2.377-12.206a67.9,67.9,0,0,0,7.939-5.546Zm18.59-40c-2.51,6.545-7.138,15.983-14.927,23.773a61.462,61.462,0,0,1-12.477,9.533,1.96,1.96,0,0,0-.243.143,75.442,75.442,0,0,1-8.026,4.02l-2.813-2.814,5.678-5.678a1.988,1.988,0,0,0-2.811-2.811l-5.678,5.678-2.813-2.813a75.388,75.388,0,0,1,4.02-8.027,1.964,1.964,0,0,0,.142-.241,61.444,61.444,0,0,1,9.534-12.479c7.79-7.789,17.226-12.416,23.772-14.926a79,79,0,0,1,9.664-3.023A79.021,79.021,0,0,1,1943.427,761.06Z" transform="translate(-13.232 0)" fill="#00abe9"/>
  </g>
</svg>
