<svg xmlns="http://www.w3.org/2000/svg" width="240.05" height="59.741" viewBox="0 0 240.05 59.741">
  <g id="Group_1974" data-name="Group 1974" transform="translate(-223 -784)">
    <g id="Group_5" data-name="Group 5" transform="translate(56.093 1372.551)">
      <path id="Path_35" data-name="Path 35" d="M272.13-580.84H286.3q9.684,0,14.059,2.756t4.375,8.765a11.043,11.043,0,0,1-1.915,6.695,7.652,7.652,0,0,1-5.091,3.145v.311a10.036,10.036,0,0,1,6.243,3.612,11.751,11.751,0,0,1,1.915,7.037,11.6,11.6,0,0,1-4.5,9.716q-4.5,3.487-12.222,3.487H272.13Zm9.652,18.029h5.6q3.924,0,5.683-1.215a4.53,4.53,0,0,0,1.759-4.016,4.021,4.021,0,0,0-1.915-3.752q-1.914-1.137-6.057-1.137h-5.075Zm0,7.66v11.864h6.29q3.986,0,5.885-1.526a5.63,5.63,0,0,0,1.9-4.671q0-5.667-8.1-5.667Z" fill="#a0a437"/>
      <path id="Path_36" data-name="Path 36" d="M314.976-535.316V-580.84h9.652v45.524Z" fill="#a0a437"/>
      <path id="Path_37" data-name="Path 37" d="M363.956-535.316l-3.3-10.836h-16.6l-3.3,10.836h-10.4l16.068-45.711h11.8l16.128,45.711Zm-5.6-18.932q-4.578-14.729-5.154-16.659t-.825-3.051q-1.027,3.985-5.885,19.71Z" fill="#a0a437"/>
      <path id="Path_38" data-name="Path 38" d="M406.957-547.958a11.768,11.768,0,0,1-4.436,9.715q-4.438,3.549-12.347,3.549a29.012,29.012,0,0,1-12.892-2.739V-546.4a53.042,53.042,0,0,0,7.8,2.9,23.049,23.049,0,0,0,5.838.841,8.3,8.3,0,0,0,4.873-1.214,4.152,4.152,0,0,0,1.7-3.612,3.991,3.991,0,0,0-.747-2.382,8.362,8.362,0,0,0-2.195-2.009,56.834,56.834,0,0,0-5.9-3.082,27.939,27.939,0,0,1-6.258-3.768,14.114,14.114,0,0,1-3.332-4.2,11.983,11.983,0,0,1-1.246-5.6,11.766,11.766,0,0,1,4.094-9.5q4.095-3.456,11.32-3.457a26.7,26.7,0,0,1,6.772.841,46.744,46.744,0,0,1,6.741,2.366l-3.114,7.505a45.6,45.6,0,0,0-6.024-2.086,19.378,19.378,0,0,0-4.687-.592,6.207,6.207,0,0,0-4.2,1.277,4.208,4.208,0,0,0-1.463,3.331,4.118,4.118,0,0,0,.592,2.227,6.475,6.475,0,0,0,1.884,1.837,57.873,57.873,0,0,0,6.118,3.192q6.383,3.051,8.75,6.118A11.947,11.947,0,0,1,406.957-547.958Z" fill="#a0a437"/>
    </g>
    <g id="bias-icon" transform="translate(223 784)">
      <path id="Path_130" data-name="Path 130" d="M182.214,37.375l-32.549-.137a2.169,2.169,0,0,0-2.2,2.2v1.923H136.343V39.3a2.169,2.169,0,0,0-2.2-2.2H101.6a2.169,2.169,0,0,0-2.2,2.2v7.141a6.508,6.508,0,0,0,6.592,6.592l71.827.275a6.508,6.508,0,0,0,6.592-6.592V39.572A2.169,2.169,0,0,0,182.214,37.375Zm-2.335,9.339a2.169,2.169,0,0,1-2.2,2.2l-71.827-.275a2.169,2.169,0,0,1-2.2-2.2V41.495l28.017.137a4.494,4.494,0,0,0,4.395,4.257H147.33a4.494,4.494,0,0,0,4.395-4.257l28.017.137Z" transform="translate(-99.4 6.436)" fill="#a0a437"/>
      <path id="Path_131" data-name="Path 131" d="M109.395,14.052a4.132,4.132,0,0,1,4.12-4.12l52.6.137a4.132,4.132,0,0,1,4.12,4.12V46.052h4.532L174.9,14.19a8.588,8.588,0,0,0-8.515-8.652L113.79,5.4a8.588,8.588,0,0,0-8.652,8.515L105,45.777h4.532Z" transform="translate(-97.309 -5.4)" fill="#a0a437"/>
      <path id="Path_132" data-name="Path 132" d="M155.262,22.674a5.923,5.923,0,0,0,5.905-5.768,5.837,5.837,0,0,0-11.674-.137,5.077,5.077,0,0,0,.824,2.884l-5.768,6.455a5.511,5.511,0,0,0-2.06-.412,6.612,6.612,0,0,0-3.3.961l-3.021-2.2a6.893,6.893,0,0,0,.275-1.648,5.837,5.837,0,1,0-11.674-.137,5.537,5.537,0,0,0,.824,3.021l-4.669,5.768c-.549-.137-1.236-.275-1.923-.412a5.837,5.837,0,1,0,5.768,5.905,5.537,5.537,0,0,0-.824-3.021l4.669-5.768c.549.137,1.236.275,1.923.412a6.612,6.612,0,0,0,3.3-.961l3.021,2.2a6.894,6.894,0,0,0-.275,1.648,5.837,5.837,0,1,0,11.674.137,5.077,5.077,0,0,0-.824-2.884l5.631-6.455A5.694,5.694,0,0,0,155.262,22.674Zm0-8.24a2.335,2.335,0,1,1-2.335,2.335A2.407,2.407,0,0,1,155.262,14.433Zm-36.257,25a2.335,2.335,0,1,1,2.335-2.335A2.407,2.407,0,0,1,119.005,39.429Zm11.4-14.283a2.335,2.335,0,1,1,2.335-2.335A2.315,2.315,0,0,1,130.4,25.146ZM142.353,33.8a2.335,2.335,0,1,1,2.335-2.335A2.315,2.315,0,0,1,142.353,33.8Z" transform="translate(-94.285 -3.309)" fill="#a0a437"/>
    </g>
  </g>
</svg>
