<svg id="bias-icon" xmlns="http://www.w3.org/2000/svg" width="87.172" height="61.26" viewBox="0 0 87.172 61.26">
  <path id="Path_130" data-name="Path 130" d="M184.319,37.382l-33.376-.141a2.224,2.224,0,0,0-2.253,2.253v1.972H137.283V39.353a2.224,2.224,0,0,0-2.253-2.253H101.653A2.224,2.224,0,0,0,99.4,39.353v7.323a6.673,6.673,0,0,0,6.76,6.76l73.653.282a6.673,6.673,0,0,0,6.76-6.76V39.635A2.224,2.224,0,0,0,184.319,37.382Zm-2.394,9.576a2.224,2.224,0,0,1-2.253,2.253l-73.653-.282a2.224,2.224,0,0,1-2.253-2.253v-5.07l28.729.141A4.608,4.608,0,0,0,137,46.113h11.548a4.608,4.608,0,0,0,4.506-4.366l28.729.141Z" transform="translate(-99.4 7.542)" fill="#a0a437"/>
  <path id="Path_131" data-name="Path 131" d="M109.507,14.272a4.237,4.237,0,0,1,4.225-4.225l53.937.141a4.237,4.237,0,0,1,4.225,4.225V47.085h4.647l.141-32.672a8.806,8.806,0,0,0-8.731-8.872L114.013,5.4a8.806,8.806,0,0,0-8.872,8.731L105,46.8h4.647Z" transform="translate(-97.114 -5.4)" fill="#a0a437"/>
  <path id="Path_132" data-name="Path 132" d="M156.334,22.97a6.073,6.073,0,0,0,6.056-5.915,5.986,5.986,0,0,0-11.97-.141,5.206,5.206,0,0,0,.845,2.957l-5.915,6.619a5.651,5.651,0,0,0-2.112-.422,6.78,6.78,0,0,0-3.38.986l-3.1-2.253a7.068,7.068,0,0,0,.282-1.69,5.986,5.986,0,1,0-11.97-.141,5.678,5.678,0,0,0,.845,3.1l-4.788,5.915c-.563-.141-1.267-.282-1.972-.422a5.986,5.986,0,1,0,5.915,6.056,5.678,5.678,0,0,0-.845-3.1l4.788-5.915c.563.141,1.267.282,1.972.422a6.78,6.78,0,0,0,3.38-.986l3.1,2.253a7.069,7.069,0,0,0-.282,1.69,5.986,5.986,0,1,0,11.97.141,5.206,5.206,0,0,0-.845-2.957l5.774-6.619A5.838,5.838,0,0,0,156.334,22.97Zm0-8.45a2.394,2.394,0,1,1-2.394,2.394A2.468,2.468,0,0,1,156.334,14.521ZM119.156,40.151a2.394,2.394,0,1,1,2.394-2.394A2.468,2.468,0,0,1,119.156,40.151Zm11.689-14.646a2.394,2.394,0,1,1,2.394-2.394A2.374,2.374,0,0,1,130.844,25.505ZM143.1,34.377a2.394,2.394,0,1,1,2.394-2.394A2.374,2.374,0,0,1,143.1,34.377Z" transform="translate(-93.807 -3.114)" fill="#a0a437"/>
</svg>
