<svg id="crypto-icon" xmlns="http://www.w3.org/2000/svg" width="70.92" height="79.847" viewBox="0 0 70.92 79.847">
  <path id="Path_244" data-name="Path 244" d="M70.92,39.51A35.972,35.972,0,0,0,46.949,5.455V.827c0-.165-.165-.5-.165-.661a1.665,1.665,0,0,0-.5-.165H37.361c-.165,0-.5.165-.661.165-.165.165-.165.331-.165.661V3.472H34.551V.827c0-.165-.165-.5-.165-.661-.331,0-.5-.165-.661-.165H24.8c-.165,0-.5.165-.661.165-.165.165-.165.331-.165.661V5.455a36.329,36.329,0,0,0,0,68.44v4.959a.781.781,0,0,0,.827.827h8.927c.165,0,.5-.165.661-.165.165-.165.165-.331.165-.661v-2.81h1.984V79.02c0,.165.165.5.165.661.165.165.331.165.661.165h8.927c.165,0,.5-.165.661-.165.165-.165.165-.331.165-.661V74.061a34.588,34.588,0,0,0,13.39-8.6A36.844,36.844,0,0,0,70.92,39.841V39.51l-.827.165.827-.165Zm-4.133.165c0,17.689-14.217,32.236-31.575,32.236S3.637,57.364,3.637,39.675,17.854,7.6,35.212,7.6,66.787,21.987,66.787,39.675Z" fill="#71b277"/>
  <path id="Path_245" data-name="Path 245" d="M49.62,24.562a4.909,4.909,0,0,0,4.629-3.472,2.1,2.1,0,0,0,.165-.992h0v-.165A4.164,4.164,0,0,0,50.447,15.8h-.331a4.445,4.445,0,0,0-4.463,4.463h0a3.891,3.891,0,0,0,.331,1.323v.165L34.411,33.323h-.165c-.5-.165-.827-.165-1.323-.331h0a3.891,3.891,0,0,0-1.323.331h-.165l-3.968-3.968V29.19a2.813,2.813,0,0,0,.165-1.157h0A4.445,4.445,0,0,0,23.17,23.57H23a4.645,4.645,0,0,0-4.463,4.3h0v.165h0c0,.331.165.827.165,1.157v.165L13.582,34.48h-.165a4.891,4.891,0,0,0-1.653-.331h0a4.463,4.463,0,1,0,0,8.927h.165a4.645,4.645,0,0,0,4.463-4.3h0v-.165h0v-.992l5.29-5.455h.165A2.813,2.813,0,0,0,23,32.331h0c.331,0,.827-.165,1.157-.165h.165l3.968,3.8v.165a2.813,2.813,0,0,0-.165,1.157h0a4.463,4.463,0,1,0,8.927,0h0c0-.331-.165-.827-.165-1.157v-.165L48.628,24.231h.165C48.959,24.562,49.29,24.562,49.62,24.562Z" transform="translate(4.768 10.32)" fill="#71b277"/>
</svg>
