<svg xmlns="http://www.w3.org/2000/svg" width="347.915" height="79.847" viewBox="0 0 347.915 79.847">
  <g id="Group_1972" data-name="Group 1972" transform="translate(-223 -1112)">
    <g id="Group_7" data-name="Group 7" transform="translate(-380.907 1612.06)">
      <path id="Path_46" data-name="Path 46" d="M730.338-475.965a9.84,9.84,0,0,0-8.439,4.1q-2.989,4.095-2.989,11.412,0,15.227,11.428,15.227a36.116,36.116,0,0,0,11.614-2.4v8.1a32.254,32.254,0,0,1-12.517,2.335q-9.934,0-15.2-6.025t-5.262-17.3a28.232,28.232,0,0,1,2.585-12.44,18.67,18.67,0,0,1,7.426-8.189,21.959,21.959,0,0,1,11.35-2.85,30.642,30.642,0,0,1,13.326,3.207l-3.113,7.848a51.443,51.443,0,0,0-5.138-2.118A15.332,15.332,0,0,0,730.338-475.965Z" fill="#71b277"/>
      <path id="Path_47" data-name="Path 47" d="M761.289-455.289v17.468h-9.652v-45.523H764.9q9.28,0,13.733,3.378t4.453,10.26a12.076,12.076,0,0,1-2.211,7.146,14.631,14.631,0,0,1-6.259,4.9q10.276,15.351,13.39,19.835H777.294l-10.867-17.468Zm0-7.847H764.4q4.578,0,6.758-1.526a5.447,5.447,0,0,0,2.18-4.8,4.981,4.981,0,0,0-2.227-4.608q-2.226-1.369-6.9-1.37h-2.927Z" fill="#71b277"/>
      <path id="Path_48" data-name="Path 48" d="M807.9-464.6l9.5-18.745h10.4l-15.1,27.8v17.718h-9.59v-17.406l-15.1-28.117h10.462Z" fill="#71b277"/>
      <path id="Path_49" data-name="Path 49" d="M864.979-469.145q0,7.348-4.593,11.24t-13.063,3.893h-4.141v16.191h-9.653v-45.523H848.07q8.283,0,12.6,3.565T864.979-469.145Zm-21.8,7.223h3.175q4.453,0,6.664-1.759a6.155,6.155,0,0,0,2.211-5.122,6.317,6.317,0,0,0-1.852-5.013q-1.852-1.618-5.808-1.619h-4.39Z" fill="#71b277"/>
      <path id="Path_50" data-name="Path 50" d="M891.135-437.821h-9.653v-37.49H869.12v-8.033H903.5v8.033H891.135Z" fill="#71b277"/>
      <path id="Path_51" data-name="Path 51" d="M951.822-460.645q0,11.3-5.6,17.375T930.15-437.2q-10.461,0-16.067-6.072t-5.6-17.437q0-11.365,5.62-17.36t16.114-5.993q10.492,0,16.051,6.04T951.822-460.645Zm-33.224,0q0,7.63,2.9,11.49t8.656,3.861q11.553,0,11.553-15.351,0-15.381-11.49-15.382-5.762,0-8.688,3.877T918.6-460.645Z" fill="#71b277"/>
    </g>
    <g id="crypto-icon" transform="translate(223 1112)">
      <path id="Path_244" data-name="Path 244" d="M70.92,39.51A35.972,35.972,0,0,0,46.949,5.455V.827c0-.165-.165-.5-.165-.661a1.665,1.665,0,0,0-.5-.165H37.361c-.165,0-.5.165-.661.165-.165.165-.165.331-.165.661V3.472H34.551V.827c0-.165-.165-.5-.165-.661-.331,0-.5-.165-.661-.165H24.8c-.165,0-.5.165-.661.165-.165.165-.165.331-.165.661V5.455a36.329,36.329,0,0,0,0,68.44v4.959a.781.781,0,0,0,.827.827h8.927c.165,0,.5-.165.661-.165.165-.165.165-.331.165-.661v-2.81h1.984V79.02c0,.165.165.5.165.661.165.165.331.165.661.165h8.927c.165,0,.5-.165.661-.165.165-.165.165-.331.165-.661V74.061a34.588,34.588,0,0,0,13.39-8.6A36.844,36.844,0,0,0,70.92,39.841V39.51l-.827.165.827-.165Zm-4.133.165c0,17.689-14.217,32.236-31.575,32.236S3.637,57.364,3.637,39.675,17.854,7.6,35.212,7.6,66.787,21.987,66.787,39.675Z" fill="#71b277"/>
      <path id="Path_245" data-name="Path 245" d="M49.62,24.562a4.909,4.909,0,0,0,4.629-3.472,2.1,2.1,0,0,0,.165-.992h0v-.165A4.164,4.164,0,0,0,50.447,15.8h-.331a4.445,4.445,0,0,0-4.463,4.463h0a3.891,3.891,0,0,0,.331,1.323v.165L34.411,33.323h-.165c-.5-.165-.827-.165-1.323-.331h0a3.891,3.891,0,0,0-1.323.331h-.165l-3.968-3.968V29.19a2.813,2.813,0,0,0,.165-1.157h0A4.445,4.445,0,0,0,23.17,23.57H23a4.645,4.645,0,0,0-4.463,4.3h0v.165h0c0,.331.165.827.165,1.157v.165L13.582,34.48h-.165a4.891,4.891,0,0,0-1.653-.331h0a4.463,4.463,0,1,0,0,8.927h.165a4.645,4.645,0,0,0,4.463-4.3h0v-.165h0v-.992l5.29-5.455h.165A2.813,2.813,0,0,0,23,32.331h0c.331,0,.827-.165,1.157-.165h.165l3.968,3.8v.165a2.813,2.813,0,0,0-.165,1.157h0a4.463,4.463,0,1,0,8.927,0h0c0-.331-.165-.827-.165-1.157v-.165L48.628,24.231h.165C48.959,24.562,49.29,24.562,49.62,24.562Z" transform="translate(4.768 10.32)" fill="#71b277"/>
    </g>
  </g>
</svg>
