<svg xmlns="http://www.w3.org/2000/svg" width="81.011" height="76.51" viewBox="0 0 81.011 76.51">
  <path id="fibonacci-icon" d="M345.274,42.636c-.288.288-.721.432-1.009.721h.288a2.78,2.78,0,0,0,1.441-.432,4.576,4.576,0,0,0,1.153-2.882,3.9,3.9,0,0,0-1.153-2.882,7.422,7.422,0,0,0-4.323-1.873,4.48,4.48,0,0,0-3.6,1.441,7.764,7.764,0,0,0-2.162,5.332,8.281,8.281,0,0,0,2.45,5.332,10.261,10.261,0,0,0,7.061,3.17,8.129,8.129,0,0,0,6.773-2.594,11.209,11.209,0,0,0,3.458-8.79,13.938,13.938,0,0,0-4.179-9.367h0a17.154,17.154,0,0,0-11.384-5.044,15.908,15.908,0,0,0-11.24,4.467h0a19.339,19.339,0,0,0-5.332,13.978A21.777,21.777,0,0,0,330,57.767a24.671,24.671,0,0,0,17.725,7.494,24.01,24.01,0,0,0,17.437-6.917,28.086,28.086,0,0,0,8.07-21.04,33.7,33.7,0,0,0-9.943-22.048,38.29,38.29,0,0,0-26.371-11.24,36.909,36.909,0,0,0-26.227,10.376,40.6,40.6,0,0,0-11.673,28.533,48.391,48.391,0,0,0,9.8,29.83l17.437-13.978a23.827,23.827,0,0,1-6.2-15.419A22.233,22.233,0,0,1,326.4,26.784h0a19.486,19.486,0,0,1,27.668.576h0a17.166,17.166,0,0,1,5.044,11.673,14.48,14.48,0,0,1-4.467,11.384,12.94,12.94,0,0,1-9.367,3.747,15.209,15.209,0,0,1-9.655-4.323,11.346,11.346,0,0,1-3.458-7.782,10.546,10.546,0,0,1,3.17-7.782,8.11,8.11,0,0,1,6.341-2.45,10.1,10.1,0,0,1,6.629,3.026,7.314,7.314,0,0,1,2.162,5.188,7.765,7.765,0,0,1-2.162,5.332,5.654,5.654,0,0,1-4.323,1.441,6.923,6.923,0,0,1-4.179-1.873.141.141,0,0,0-.144-.144,4.433,4.433,0,0,1-1.3-3.314,6.327,6.327,0,0,1,1.441-3.459h0a3.59,3.59,0,0,1,3.458-.865,4.885,4.885,0,0,1,2.017,1.3h0c2.018,1.873.432,3.459-.144,4.179Zm2.594,26.227a28.61,28.61,0,0,1-19.022-7.494L309.824,76.789a1.672,1.672,0,0,1-2.45-.288A52.277,52.277,0,0,1,295.7,43.068a43.973,43.973,0,0,1,12.681-30.983A39.679,39.679,0,0,1,337.06.7,40.789,40.789,0,0,1,365.881,12.95,37.213,37.213,0,0,1,376.689,37.3a31.02,31.02,0,0,1-9.079,23.633,26.4,26.4,0,0,1-19.742,7.926Z" transform="translate(-295.697 -0.697)" fill="#554467"/>
</svg>
