<svg xmlns="http://www.w3.org/2000/svg" width="437.7" height="76.51" viewBox="0 0 437.7 76.51">
  <g id="Group_1975" data-name="Group 1975" transform="translate(-227 -618)">
    <g id="Group_4" data-name="Group 4" transform="translate(56.093 1307.551)">
      <path id="Path_26" data-name="Path 26" d="M281.627-628.311h-9.5v-45.524h26.094v7.909h-16.6v11.739h15.444v7.878H281.627Z" fill="#554467"/>
      <path id="Path_27" data-name="Path 27" d="M307.129-628.311v-45.524h9.652v45.524Z" fill="#554467"/>
      <path id="Path_28" data-name="Path 28" d="M328.24-673.835h14.168q9.684,0,14.059,2.756t4.375,8.765a11.049,11.049,0,0,1-1.915,6.7,7.654,7.654,0,0,1-5.091,3.145v.311a10.033,10.033,0,0,1,6.243,3.612,11.756,11.756,0,0,1,1.915,7.037,11.593,11.593,0,0,1-4.5,9.715q-4.5,3.489-12.222,3.488H328.24Zm9.654,18.029h5.6q3.923,0,5.683-1.215a4.527,4.527,0,0,0,1.759-4.016,4.019,4.019,0,0,0-1.915-3.752q-1.916-1.137-6.056-1.137h-5.075Zm0,7.66v11.864h6.289q3.985,0,5.885-1.526a5.633,5.633,0,0,0,1.9-4.671q0-5.667-8.1-5.667Z" fill="#554467"/>
      <path id="Path_29" data-name="Path 29" d="M412.406-651.135q0,11.3-5.6,17.375t-16.068,6.071q-10.463,0-16.067-6.071t-5.6-17.437q0-11.367,5.621-17.36t16.114-5.994q10.492,0,16.051,6.041T412.406-651.135Zm-33.224,0q0,7.629,2.9,11.489t8.656,3.862q11.553,0,11.552-15.351,0-15.383-11.489-15.383-5.762,0-8.688,3.877T379.182-651.135Z" fill="#554467"/>
      <path id="Path_30" data-name="Path 30" d="M462.227-628.311H449.959l-19.8-34.439h-.28q.591,9.125.591,13.016v21.423h-8.625v-45.524h12.175l19.772,34.1h.219q-.468-8.874-.468-12.548v-21.548h8.688Z" fill="#554467"/>
      <path id="Path_31" data-name="Path 31" d="M501.555-628.311l-3.3-10.836h-16.6l-3.3,10.836h-10.4l16.067-45.711h11.8l16.129,45.711Zm-5.606-18.932q-4.578-14.729-5.153-16.659t-.825-3.051q-1.027,3.985-5.885,19.71Z" fill="#554467"/>
      <path id="Path_32" data-name="Path 32" d="M537.021-666.455a9.838,9.838,0,0,0-8.439,4.094q-2.989,4.1-2.989,11.413,0,15.225,11.428,15.226a36.111,36.111,0,0,0,11.614-2.4v8.1a32.255,32.255,0,0,1-12.518,2.335q-9.933,0-15.2-6.025t-5.262-17.3a28.241,28.241,0,0,1,2.584-12.439,18.68,18.68,0,0,1,7.427-8.19,21.971,21.971,0,0,1,11.35-2.849,30.639,30.639,0,0,1,13.327,3.207l-3.115,7.847a51.732,51.732,0,0,0-5.137-2.117A15.328,15.328,0,0,0,537.021-666.455Z" fill="#554467"/>
      <path id="Path_33" data-name="Path 33" d="M577.655-666.455a9.833,9.833,0,0,0-8.437,4.094q-2.99,4.1-2.989,11.413,0,15.225,11.426,15.226a36.116,36.116,0,0,0,11.616-2.4v8.1a32.262,32.262,0,0,1-12.518,2.335q-9.933,0-15.2-6.025t-5.263-17.3a28.228,28.228,0,0,1,2.585-12.439,18.684,18.684,0,0,1,7.426-8.19,21.967,21.967,0,0,1,11.349-2.849,30.629,30.629,0,0,1,13.327,3.207l-3.113,7.847a51.658,51.658,0,0,0-5.138-2.117A15.329,15.329,0,0,0,577.655-666.455Z" fill="#554467"/>
      <path id="Path_34" data-name="Path 34" d="M598.954-628.311v-45.524h9.653v45.524Z" fill="#554467"/>
    </g>
    <path id="fibonacci-icon" d="M345.274,42.636c-.288.288-.721.432-1.009.721h.288a2.78,2.78,0,0,0,1.441-.432,4.576,4.576,0,0,0,1.153-2.882,3.9,3.9,0,0,0-1.153-2.882,7.422,7.422,0,0,0-4.323-1.873,4.48,4.48,0,0,0-3.6,1.441,7.764,7.764,0,0,0-2.162,5.332,8.281,8.281,0,0,0,2.45,5.332,10.261,10.261,0,0,0,7.061,3.17,8.129,8.129,0,0,0,6.773-2.594,11.209,11.209,0,0,0,3.458-8.79,13.938,13.938,0,0,0-4.179-9.367h0a17.154,17.154,0,0,0-11.384-5.044,15.908,15.908,0,0,0-11.24,4.467h0a19.339,19.339,0,0,0-5.332,13.978A21.777,21.777,0,0,0,330,57.767a24.671,24.671,0,0,0,17.725,7.494,24.01,24.01,0,0,0,17.437-6.917,28.086,28.086,0,0,0,8.07-21.04,33.7,33.7,0,0,0-9.943-22.048,38.29,38.29,0,0,0-26.371-11.24,36.909,36.909,0,0,0-26.227,10.376,40.6,40.6,0,0,0-11.673,28.533,48.391,48.391,0,0,0,9.8,29.83l17.437-13.978a23.827,23.827,0,0,1-6.2-15.419A22.233,22.233,0,0,1,326.4,26.784h0a19.486,19.486,0,0,1,27.668.576h0a17.166,17.166,0,0,1,5.044,11.673,14.48,14.48,0,0,1-4.467,11.384,12.94,12.94,0,0,1-9.367,3.747,15.209,15.209,0,0,1-9.655-4.323,11.346,11.346,0,0,1-3.458-7.782,10.546,10.546,0,0,1,3.17-7.782,8.11,8.11,0,0,1,6.341-2.45,10.1,10.1,0,0,1,6.629,3.026,7.314,7.314,0,0,1,2.162,5.188,7.765,7.765,0,0,1-2.162,5.332,5.654,5.654,0,0,1-4.323,1.441,6.923,6.923,0,0,1-4.179-1.873.141.141,0,0,0-.144-.144,4.433,4.433,0,0,1-1.3-3.314,6.327,6.327,0,0,1,1.441-3.459h0a3.59,3.59,0,0,1,3.458-.865,4.885,4.885,0,0,1,2.017,1.3h0c2.018,1.873.432,3.459-.144,4.179Zm2.594,26.227a28.61,28.61,0,0,1-19.022-7.494L309.824,76.789a1.672,1.672,0,0,1-2.45-.288A52.277,52.277,0,0,1,295.7,43.068a43.973,43.973,0,0,1,12.681-30.983A39.679,39.679,0,0,1,337.06.7,40.789,40.789,0,0,1,365.881,12.95,37.213,37.213,0,0,1,376.689,37.3a31.02,31.02,0,0,1-9.079,23.633,26.4,26.4,0,0,1-19.742,7.926Z" transform="translate(-68.697 617.303)" fill="#554467"/>
  </g>
</svg>
