<svg id="foundation-icon" xmlns="http://www.w3.org/2000/svg" width="81.413" height="73.012" viewBox="0 0 81.413 73.012">
  <path id="Path_105" data-name="Path 105" d="M39.72,20.43a1.243,1.243,0,0,0,1.428,1.02L65,17.458a1.242,1.242,0,0,0,1.02-1.428l-2.5-14.975A1.242,1.242,0,0,0,62.095.034L38.239,4.026a1.243,1.243,0,0,0-1.02,1.428Zm23.652-5.217L41.965,18.788,39.871,6.27,61.278,2.7Z" transform="translate(-33.9 -0.018)" fill="#46a9ad"/>
  <path id="Path_106" data-name="Path 106" d="M582.3,191.5Z" transform="translate(-530.64 -174.512)" fill="#46a9ad"/>
  <path id="Path_107" data-name="Path 107" d="M81.247,201.783l-9.7-16.856a1.247,1.247,0,0,0-1.694-.461l-1.73.994-2.972-5.172,5.27-3.034a2.308,2.308,0,0,0,1.011-1.215,2.651,2.651,0,0,0,.142-.861,2.814,2.814,0,0,0-.284-1.224,2.9,2.9,0,0,0-.843-1.029h0L55.439,161.532a2.623,2.623,0,0,0-.727-.39,2.44,2.44,0,0,0-.8-.142,2.328,2.328,0,0,0-.887.177,2.213,2.213,0,0,0-1.02.869,2.438,2.438,0,0,0-.373,1.322c0,.115.009.231.018.337l.958,7.78H13.325a1.242,1.242,0,0,0-1.242,1.242v14.408H1.242a1.25,1.25,0,0,0-.878.364,1.287,1.287,0,0,0-.364.887v15.179a1.242,1.242,0,0,0,1.242,1.242h10.85v13.68a1.242,1.242,0,0,0,1.242,1.242H61.7a1.242,1.242,0,0,0,1.242-1.242V203.54A1.242,1.242,0,0,0,61.7,202.3H50.852V189.629H59.5a1.242,1.242,0,0,0,1.242-1.242v-5.562l2.245-1.3,2.972,5.172-1.73.994a1.242,1.242,0,0,0-.452,1.694l9.7,16.856a1.247,1.247,0,0,0,1.694.461l5.616-3.229a1.208,1.208,0,0,0,.577-.754A1.165,1.165,0,0,0,81.247,201.783Zm-12.3-26.872.754-.985-.754.985a.393.393,0,0,1,.106.133.824.824,0,0,1,.035.115l-12.509,7.195a.386.386,0,0,1-.1-.106.392.392,0,0,1-.053-.142L54.162,163.67ZM26.668,202.324v-12.7h7.683v3.052a4.888,4.888,0,0,0,.311,1.721,4.316,4.316,0,0,0,.63,1.136,4.143,4.143,0,0,0,1.544,1.233,4.943,4.943,0,0,0,3.886.089,4.475,4.475,0,0,0,1.136-.692,4.361,4.361,0,0,0,1.171-1.553,4.755,4.755,0,0,0,.408-1.934v-3.052h4.942v12.7Zm14.275-9.643a2.287,2.287,0,0,1-.151.834,1.846,1.846,0,0,1-.692.878,1.728,1.728,0,0,1-.532.248,2.307,2.307,0,0,1-.683.1,2.256,2.256,0,0,1-.9-.168,1.816,1.816,0,0,1-.479-.293,1.852,1.852,0,0,1-.488-.665,2.356,2.356,0,0,1-.186-.932V179.994a4.1,4.1,0,0,0-.3-1.579,4.037,4.037,0,0,0-1.464-1.845,3.856,3.856,0,0,0-1.109-.523,4.245,4.245,0,0,0-1.26-.186,4.388,4.388,0,0,0-1.686.319,3.91,3.91,0,0,0-2.129,2.058,4.355,4.355,0,0,0-.364,1.757v.612a1.744,1.744,0,0,1-.124.665,1.523,1.523,0,0,1-.985.914,1.986,1.986,0,0,1-.541.08,1.9,1.9,0,0,1-.727-.133,1.455,1.455,0,0,1-.381-.231,1.557,1.557,0,0,1-.39-.523,1.814,1.814,0,0,1-.151-.754V174H40.925ZM14.576,173.97h8.171v6.636a4.474,4.474,0,0,0,.284,1.57,4.039,4.039,0,0,0,.577,1.029,3.885,3.885,0,0,0,1.4,1.127,4.35,4.35,0,0,0,1.872.408,4.411,4.411,0,0,0,1.65-.319A3.973,3.973,0,0,0,30.35,182.9a4.186,4.186,0,0,0,.665-2.289V180a1.758,1.758,0,0,1,.124-.674,1.4,1.4,0,0,1,.222-.39,1.349,1.349,0,0,1,.523-.408,1.969,1.969,0,0,1,.825-.169,1.827,1.827,0,0,1,.7.133,1.455,1.455,0,0,1,.683.577,1.774,1.774,0,0,1,.266.94v7.151H14.576ZM2.484,189.629h21.7v12.7H2.484Zm12.092,27.617V204.808h21.7v12.438Zm45.884,0H38.76V204.808H49.61a1.123,1.123,0,0,0,.248-.027h10.6Zm-2.191-30.1H43.436V173.97h9.5l1.038,8.437a2.877,2.877,0,0,0,1.242,2.023,2.3,2.3,0,0,0,.648.31,2.519,2.519,0,0,0,.745.115,2.484,2.484,0,0,0,.568-.071,2.129,2.129,0,0,0,.55-.231l.541-.311ZM75.01,203.939l-8.455-14.7,3.469-2,8.455,14.7Z" transform="translate(0 -146.718)" fill="#46a9ad"/>
</svg>
