<svg xmlns="http://www.w3.org/2000/svg" width="82.856" height="82.7" viewBox="0 0 82.856 82.7">
  <g id="futures-icon" transform="translate(0)">
    <path id="Path_108" data-name="Path 108" d="M221,8.5Z" transform="translate(-195.458 3.96)" fill="#284556"/>
    <path id="Path_109" data-name="Path 109" d="M210,20.5Z" transform="translate(-201.59 10.649)" fill="#284556"/>
    <path id="Path_110" data-name="Path 110" d="M248.4,31.3Z" transform="translate(-180.184 16.669)" fill="#284556"/>
    <path id="Path_111" data-name="Path 111" d="M230.8,10.8Z" transform="translate(-189.995 5.242)" fill="#284556"/>
    <path id="Path_112" data-name="Path 112" d="M226.6,22.2Z" transform="translate(-192.336 11.596)" fill="#284556"/>
    <path id="Path_113" data-name="Path 113" d="M232.4,22.6Z" transform="translate(-189.103 11.819)" fill="#284556"/>
    <path id="Path_114" data-name="Path 114" d="M238.2,24.2Z" transform="translate(-185.87 12.711)" fill="#284556"/>
    <path id="Path_115" data-name="Path 115" d="M241.3,27.1Z" transform="translate(-184.142 14.328)" fill="#284556"/>
    <path id="Path_116" data-name="Path 116" d="M239.4,27Z" transform="translate(-185.201 14.272)" fill="#284556"/>
    <path id="Path_117" data-name="Path 117" d="M242.2,23.1Z" transform="translate(-183.64 12.098)" fill="#284556"/>
    <path id="Path_118" data-name="Path 118" d="M229.9,26.3Z" transform="translate(-190.497 13.882)" fill="#284556"/>
    <path id="Path_119" data-name="Path 119" d="M238.4,21.6Z" transform="translate(-185.759 11.262)" fill="#284556"/>
    <path id="Path_120" data-name="Path 120" d="M237.2,13.4Z" transform="translate(-186.427 6.691)" fill="#284556"/>
    <path id="Path_121" data-name="Path 121" d="M228.8,18.1Z" transform="translate(-191.11 9.311)" fill="#284556"/>
    <path id="Path_122" data-name="Path 122" d="M230.6,15.9Z" transform="translate(-190.107 8.085)" fill="#284556"/>
    <path id="Path_123" data-name="Path 123" d="M223.857,16.448a4.061,4.061,0,0,0,1.713.467,4.5,4.5,0,0,0,2.181-.623,13.481,13.481,0,0,0,1.557-1.09l.311-.156a6.813,6.813,0,0,1,1.557-.934,9.991,9.991,0,0,0,3.582-2.492,5.788,5.788,0,0,0,1.246-3.426,4.61,4.61,0,0,0-.311-1.557,4.242,4.242,0,0,0-1.246-1.557,4.588,4.588,0,0,0-2.025-.779h-.934a10.144,10.144,0,0,0-4.049.934,7.361,7.361,0,0,0-1.869,1.09,3.809,3.809,0,0,0-1.4,1.713h0l-.467.934h0A8.056,8.056,0,0,0,222.767,11a6.251,6.251,0,0,0-.467,2.336,6.857,6.857,0,0,0,.312,1.557A2.07,2.07,0,0,0,223.857,16.448Zm7.164-7.631-.623.623a9.249,9.249,0,0,1-1.246.623,11.612,11.612,0,0,0-1.869,1.09A.153.153,0,0,1,227.44,11a6.774,6.774,0,0,1,.623-1.09l.311-.311a5.378,5.378,0,0,1,2.8-.779C231.177,8.661,231.177,8.661,231.022,8.817Z" transform="translate(-194.733 1.618)" fill="#284556"/>
    <path id="Path_124" data-name="Path 124" d="M212.1,8.7Z" transform="translate(-200.419 4.071)" fill="#284556"/>
    <path id="Path_125" data-name="Path 125" d="M286.521,33.518h0A41.653,41.653,0,0,0,272.66,10.312l.156-.311-.623-.156A41.29,41.29,0,0,0,224.224,6.73a34.9,34.9,0,0,0-7.943,6.386,41.36,41.36,0,1,0,71.175,28.657A38.343,38.343,0,0,0,286.521,33.518Zm-3.582,8.566a36.946,36.946,0,0,1-36.911,36.911,36.226,36.226,0,0,1-20.4-6.23c-.156-.467-.156-.779-.311-1.246a22.01,22.01,0,0,1-.623-3.894,5.5,5.5,0,0,1,.623-2.648,28.7,28.7,0,0,1,1.557-2.492c.779-1.246,1.713-2.492,2.336-3.738a10.836,10.836,0,0,0,1.246-4.205v-.779a12.941,12.941,0,0,0-.934-4.049,5.4,5.4,0,0,0-2.648-3.115,9.115,9.115,0,0,0-3.426-.779,3.457,3.457,0,0,1-1.4-.156c-.311,0-.467-.156-.779-.311-.779-.779-1.869-1.557-2.8-2.648a6.264,6.264,0,0,1-1.713-3.115V38.346a13.4,13.4,0,0,1,.156-2.492c0-.311,0-.779.156-.934v-.311h0c.156-.156.312-.311.312-.467h0c.311-.467.623-.779,1.09-1.4l.156.156h0a13,13,0,0,0,1.869,1.246,11.67,11.67,0,0,0,2.492.779h0a3.939,3.939,0,0,0,2.336-.934,12.649,12.649,0,0,0,1.4-1.557c.156-.156.312-.467.467-.623a.153.153,0,0,1,.156-.156h0a4.2,4.2,0,0,0,1.246-1.09,7.157,7.157,0,0,0,1.09-2.492,17.166,17.166,0,0,0,.311-2.8,19.087,19.087,0,0,0-.311-2.959,24.1,24.1,0,0,0-.623-2.336h0a9.9,9.9,0,0,0-.934-1.557l.156-.156c.156,0,.156-.156.312-.311a5.108,5.108,0,0,0,1.246-.934,3.081,3.081,0,0,0,.779-2.18,4.313,4.313,0,0,0-.156-1.4c-.156-.467-.467-.934-.623-1.4l-.935-1.4c-.156-.156-.156-.311-.311-.311A37.292,37.292,0,0,1,246.339,5.64a36.253,36.253,0,0,1,19.468,5.607c-.156,0-.156.156-.312.156a21.79,21.79,0,0,0-4.049,2.492c-1.09.779-2.18,1.4-3.115,2.025a9.9,9.9,0,0,1-2.8.934h-.311a16.2,16.2,0,0,1-2.336-.311,19.172,19.172,0,0,0-3.115-.311,8.341,8.341,0,0,0-4.049,1.09,9.02,9.02,0,0,0-2.18,1.869A6.346,6.346,0,0,0,242.6,20.9c0,.156,0,.156-.156.311a8.472,8.472,0,0,0-3.115-.623,7.818,7.818,0,0,0-1.869.311,3.11,3.11,0,0,0-1.557,1.246,4.556,4.556,0,0,0-1.246,2.959,4.546,4.546,0,0,0,.311,1.4,3.391,3.391,0,0,0,1.09,1.4h.156a9.4,9.4,0,0,0-1.246,1.246,3.392,3.392,0,0,0-.779,1.246,4.545,4.545,0,0,0-.311,1.4v.623a3.183,3.183,0,0,0,.779,1.4,5.385,5.385,0,0,0,1.869,1.09h0a3.429,3.429,0,0,0,1.246.156,4.311,4.311,0,0,0,1.4-.156,9.31,9.31,0,0,0,2.492-1.246l.934-.467a.769.769,0,0,1,.467-.156h.156a14.366,14.366,0,0,1,1.246.779,8.177,8.177,0,0,0,1.713,1.09,5.07,5.07,0,0,0,2.18.623h.311a7.439,7.439,0,0,0,2.8-.623c.311-.156.623-.156.935-.311.311,0,.467-.156.623-.156,0,.156.156.311.311.623h0a1.568,1.568,0,0,0,.156.467h0l-.312.311a5.6,5.6,0,0,1-1.4.779,10.631,10.631,0,0,1-4.049.779h-.779a1.216,1.216,0,0,1-.623-.623h0a4.444,4.444,0,0,0-1.246-1.09,7.112,7.112,0,0,0-2.18-.779h0a5.3,5.3,0,0,0-1.558-.156,15.431,15.431,0,0,0-2.8.311h0a6.509,6.509,0,0,0-1.557.623h0a15.161,15.161,0,0,0-4.984,4.517,10.9,10.9,0,0,0-2.18,6.386,4.311,4.311,0,0,0,.156,1.4,5.511,5.511,0,0,0,1.869,3.271,10.486,10.486,0,0,0,5.918,2.18h0a10.839,10.839,0,0,1,2.492.311c.467.156.934.156,1.246.311a2.793,2.793,0,0,1,1.09.779,7.444,7.444,0,0,1,.779,1.869,11.822,11.822,0,0,1,.156,2.492v4.672a15.166,15.166,0,0,0,.311,3.738,10.457,10.457,0,0,0,1.557,3.582,6.791,6.791,0,0,0,2.336,2.025,4.259,4.259,0,0,0,2.18.623h.467A5.41,5.41,0,0,0,253.5,72.3a19.475,19.475,0,0,0,3.582-4.828c1.09-2.025,2.025-4.205,3.115-6.541a9.248,9.248,0,0,1,.623-1.246,2.63,2.63,0,0,0,.311-.779h0l.311-.623h0c.623-1.246,1.4-2.648,2.025-4.049a11.379,11.379,0,0,0,.935-4.672,7.274,7.274,0,0,0-.467-2.648,1.4,1.4,0,0,0,.779-.156,4.339,4.339,0,0,0,2.025-1.09,3.231,3.231,0,0,0,.935-1.557v-.156a34.187,34.187,0,0,0,2.18,2.8,7.5,7.5,0,0,0,1.713,1.4,7.824,7.824,0,0,0,2.025.779h.623a5.873,5.873,0,0,0,3.271-1.09c.935-.623,1.869-1.4,2.648-2.025a5.107,5.107,0,0,1,1.246-.934h0a6.666,6.666,0,0,0,2.18-2.492c0-.156.156-.156.156-.311C282.939,41.616,282.939,41.928,282.939,42.084ZM227.027,31.026Zm-7.476-14.64a40.588,40.588,0,0,1,4.828-4.205.809.809,0,0,1,.311.623c.156.311.467.623.623.934.156.156.156.156.156.311a4.9,4.9,0,0,0-1.558,1.557h0a4.521,4.521,0,0,0-.934,2.492,3.111,3.111,0,0,0,.311,1.4,6.774,6.774,0,0,0,.623,1.09h0c.156.311.467.623.623.934a3.109,3.109,0,0,1,.312,1.4A7.582,7.582,0,0,1,225,24.8a6.981,6.981,0,0,1-.156,1.869.682.682,0,0,1-.156.467h0a6.135,6.135,0,0,0-2.18,2.336c-.156.156-.156.311-.311.467-.156,0-.311-.156-.467-.311-.311-.156-.623-.467-.934-.623a13.476,13.476,0,0,0-1.557-1.09,3.321,3.321,0,0,0-1.869-.467h-.623a2.071,2.071,0,0,0-1.09.467,7.193,7.193,0,0,0-1.09,1.09h0c-.311.623-.623.934-.779,1.246a2.735,2.735,0,0,1-.623.779h0c-.156.156-.311.467-.467.623a3.13,3.13,0,0,0-.623,1.246l-.467,2.336c0,.779-.156,1.713-.156,2.492v1.4c0,.467,0,.779.156.934a11.039,11.039,0,0,0,2.336,4.672,26.917,26.917,0,0,0,3.738,3.582,4.644,4.644,0,0,0,2.648,1.246c.779.156,1.713.156,2.336.311a3.036,3.036,0,0,1,1.246.156c.156,0,.311.156.467.156a2.949,2.949,0,0,1,.623.934,16.827,16.827,0,0,1,.623,2.648v.156a4.97,4.97,0,0,1-.935,2.492,31.038,31.038,0,0,1-1.869,2.959,16.5,16.5,0,0,0-1.869,3.115h0a10.253,10.253,0,0,0-1.09,4.672v.779a36.869,36.869,0,0,1-11.058-26.321,38.189,38.189,0,0,1,10.746-25.231ZM279.98,37.1c-.311.779-.623,1.557-.934,2.18s-.623,1.09-1.09,1.246h0a10.9,10.9,0,0,0-1.557,1.246,16.553,16.553,0,0,1-1.713,1.4c-.312.156-.623.467-.779.467s-.156.156-.311.156h0c-.156,0-.312-.156-.467-.311a4.668,4.668,0,0,1-1.4-1.557c-.467-.623-.935-1.4-1.4-2.025a20.608,20.608,0,0,0-2.8-3.426h0a8.639,8.639,0,0,0-1.246-.934,3.266,3.266,0,0,0-1.713-.623,2.934,2.934,0,0,0-1.246.311,2.645,2.645,0,0,0-.934.934,2.886,2.886,0,0,0-.312,1.09,7.814,7.814,0,0,0,.312,1.869,8.962,8.962,0,0,1,.311,1.557v.779h-1.713a3.11,3.11,0,0,0-1.4-.311,1.4,1.4,0,0,0-.779.156,2.083,2.083,0,0,0-1.246,1.09h0a2.25,2.25,0,0,0-.311,1.09,3.666,3.666,0,0,0,.311,1.246,14.375,14.375,0,0,0,.779,1.246c.156.156.312.467.467.623s.156.311.312.467a5.533,5.533,0,0,1,.311,1.557,8.317,8.317,0,0,1-.779,3.115,32.95,32.95,0,0,1-1.713,3.271l-.311.623c-.312.623-.623,1.4-1.09,2.492a68.7,68.7,0,0,1-2.959,6.385,21.869,21.869,0,0,1-1.869,2.8l-.779.779c-.311.156-.467.311-.623.311h0a.482.482,0,0,1-.311-.156c-.156-.156-.467-.311-.623-.623a6.108,6.108,0,0,1-.779-2.025,14.248,14.248,0,0,1-.156-2.648V58.281a12.218,12.218,0,0,0-.311-3.426,9.555,9.555,0,0,0-1.557-3.582,7.961,7.961,0,0,0-3.894-2.648A21.14,21.14,0,0,0,237.462,48a9.412,9.412,0,0,1-2.8-.623,2.15,2.15,0,0,1-.623-.467,1.181,1.181,0,0,1-.311-.623v-.467a6.992,6.992,0,0,1,1.4-3.738,10.776,10.776,0,0,1,3.426-3.115c.156-.156.467-.156.779-.311h0a5.84,5.84,0,0,1,1.713-.156h.779a.682.682,0,0,1,.467.156c.156,0,.156.156.467.467h0a12.721,12.721,0,0,0,1.4,1.246,5.455,5.455,0,0,0,3.426.934,13.97,13.97,0,0,0,2.8-.311,13.058,13.058,0,0,0,3.894-1.4,6.139,6.139,0,0,0,2.959-2.648,5.07,5.07,0,0,0,.623-2.18,5.6,5.6,0,0,0-.312-1.713,5.364,5.364,0,0,0-2.492-3.271h0a4.8,4.8,0,0,0-2.025-.467,9.107,9.107,0,0,0-2.959.623h0c-.311.156-.623.156-.934.311-.311,0-.467.156-.623.156a2.241,2.241,0,0,1-.467-.311c-.311-.156-.623-.467-.934-.623a16.419,16.419,0,0,0-1.713-1.09,5.159,5.159,0,0,0-2.336-.623h-.934c.156-.156.311-.467.467-.623a2.934,2.934,0,0,0,.311-1.246.937.937,0,0,0-.156-.623h.467a3.04,3.04,0,0,0,1.09-.156,4.128,4.128,0,0,0,.934-.779,10.134,10.134,0,0,0,1.4-2.336h0a2.535,2.535,0,0,1,.467-.934,2.568,2.568,0,0,1,.934-.779h0a2.8,2.8,0,0,1,1.713-.467,13.822,13.822,0,0,1,2.336.311,19.081,19.081,0,0,0,2.959.311h.467a14.969,14.969,0,0,0,4.517-1.246,32.209,32.209,0,0,0,3.894-2.336,18.65,18.65,0,0,1,3.271-2.025,7.616,7.616,0,0,1,2.959-.779h.311A37.205,37.205,0,0,1,282.16,33.362,13.587,13.587,0,0,0,279.98,37.1Z" transform="translate(-204.6 -0.5)" fill="#284556"/>
    <path id="Path_126" data-name="Path 126" d="M217.2,4.6Z" transform="translate(-197.576 1.786)" fill="#284556"/>
  </g>
</svg>
