<svg xmlns="http://www.w3.org/2000/svg" width="81.078" height="78.657" viewBox="0 0 81.078 78.657">
  <path id="Path_22355" data-name="Path 22355" d="M55.22-67.964a3.031,3.031,0,0,0,.128-.65c0-.053.013-.105.016-.159,0-.034.01-.064.01-.1a2.953,2.953,0,0,0-.085-.682c-.01-.042-.025-.081-.038-.122a2.984,2.984,0,0,0-.264-.645c-.017-.031-.021-.067-.039-.1L42-92.2a3.016,3.016,0,0,0-2.6-1.479H-9.729a3.014,3.014,0,0,0-2.6,1.479L-25.279-70.416c-.017.03-.022.065-.039.1a2.985,2.985,0,0,0-.264.645c-.011.041-.028.08-.038.122a3.02,3.02,0,0,0-.085.682c0,.034.01.065.011.1,0,.053.011.105.016.157a3.026,3.026,0,0,0,.127.651c.017.052.029.1.048.155a2.949,2.949,0,0,0,.368.693c.01.013.012.029.022.041L12.4-16.25a3.024,3.024,0,0,0,2.434,1.229,3.026,3.026,0,0,0,2.435-1.229L54.782-67.074a.444.444,0,0,0,.022-.041,2.949,2.949,0,0,0,.368-.693C55.191-67.859,55.2-67.911,55.22-67.964ZM-6.008-65.845,5.315-36.039l-22-29.806ZM24.151-87.626,29.394-71.9H.276L5.519-87.626Zm5.055,21.782L14.834-28.017.463-65.845Zm6.473,0H46.355l-22,29.807ZM47.03-71.9H35.772L30.528-87.626h7.151ZM-8.009-87.626H-.858L-6.1-71.9H-17.36Z" transform="translate(25.704 93.677)" fill="#00b472"/>
</svg>
