<svg id="options-icon" xmlns="http://www.w3.org/2000/svg" width="91.931" height="74.082" viewBox="0 0 91.931 74.082">
  <path id="Path_127" data-name="Path 127" d="M82.037,33.77,63.891,3.619A1.5,1.5,0,0,0,62.527,2.8a1.939,1.939,0,0,0-.819.273L53.25,8.257l3.411,3.411,4.775-3L76.443,33.5,40.152,55.6,26.1,69.515,81.491,35.953A1.475,1.475,0,0,0,82.037,33.77Z" transform="translate(9.611 1.02)" fill="#0984ae"/>
  <path id="Path_128" data-name="Path 128" d="M73.836,25.513,49.006.409a1.66,1.66,0,0,0-2.183,0L.437,46.386a1.57,1.57,0,0,0,0,2.319l24.83,24.967a1.66,1.66,0,0,0,2.183,0L73.7,27.7A1.426,1.426,0,0,0,73.836,25.513ZM48.051,46.8a14.538,14.538,0,0,1-10.369,4.229,14.12,14.12,0,0,1-10.369-4.366A14.666,14.666,0,0,1,37.819,21.692a14.12,14.12,0,0,1,10.369,4.366A14.782,14.782,0,0,1,48.051,46.8ZM26.495,68.215,6.03,47.614l13.1-12.961a18.563,18.563,0,0,0,5.321,15.007,19.166,19.166,0,0,0,13.234,5.594,10.326,10.326,0,0,0,2.046-.136ZM56.373,38.473a18.527,18.527,0,0,0-5.321-15.28A19.166,19.166,0,0,0,37.819,17.6a7.779,7.779,0,0,0-1.774.136L47.914,5.867l20.465,20.6Z" transform="translate(0.075)" fill="#0984ae"/>
  <path id="Path_129" data-name="Path 129" d="M38.145,31.915a5.078,5.078,0,0,0-.273-2.456,6.163,6.163,0,0,0-1.5-2.319,5.714,5.714,0,0,0-2.183-1.5,5.45,5.45,0,0,0-2.592-.273A27.858,27.858,0,0,0,27.5,26.594a5.571,5.571,0,0,1-2.183.546h0a1.972,1.972,0,0,1-.955-.273,1.151,1.151,0,0,1-.273-.955,1.886,1.886,0,0,1,.682-1.228,3.98,3.98,0,0,1,3-.955h.409v-3.82h-.409a10.162,10.162,0,0,0-2.456.273A5.171,5.171,0,0,0,23.547,21l-1.5-1.5L20,21.546l1.364,1.364a5.24,5.24,0,0,0-1.228,3.411A4.525,4.525,0,0,0,21.5,29.732a5.723,5.723,0,0,0,1.91,1.228,4.811,4.811,0,0,0,2.456.136,33.862,33.862,0,0,0,4.366-1.228,8.368,8.368,0,0,1,2.183-.409,1.886,1.886,0,0,1,1.228.682,2.052,2.052,0,0,1,.546,1.5,2.517,2.517,0,0,1-.682,1.637q-1.433,1.433-4.5,1.228h-.273v3.82H29a15.216,15.216,0,0,0,3.684-.409,7.584,7.584,0,0,0,2.319-1.228L37.19,39.01l2.046-2.046-2.319-2.319A7.292,7.292,0,0,0,38.145,31.915Z" transform="translate(7.388 7.104)" fill="#0984ae"/>
</svg>
