<svg xmlns="http://www.w3.org/2000/svg" width="391.335" height="74.082" viewBox="0 0 391.335 74.082">
  <g id="Group_1977" data-name="Group 1977" transform="translate(-217 -233)">
    <g id="Group_1970" data-name="Group 1970" transform="translate(0 -94)">
      <g id="Group_2" data-name="Group 2" transform="translate(653.314 922.556)">
        <path id="Path_12" data-name="Path 12" d="M-281.97-558.14q0,11.3-5.605,17.375t-16.067,6.071q-10.463,0-16.067-6.071t-5.6-17.437q0-11.365,5.62-17.36t16.114-5.994q10.494,0,16.052,6.041T-281.97-558.14Zm-33.224,0q0,7.629,2.9,11.489t8.656,3.862q11.551,0,11.552-15.351,0-15.383-11.49-15.383-5.76,0-8.687,3.877T-315.194-558.14Z" fill="#0984ae"/>
        <path id="Path_13" data-name="Path 13" d="M-241.086-566.641q0,7.35-4.593,11.241t-13.062,3.892h-4.141v16.192h-9.653V-580.84h14.541q8.283,0,12.6,3.565T-241.086-566.641Zm-21.8,7.224h3.175q4.453,0,6.664-1.759a6.157,6.157,0,0,0,2.211-5.123,6.315,6.315,0,0,0-1.853-5.013q-1.853-1.618-5.807-1.619h-4.39Z" fill="#0984ae"/>
        <path id="Path_14" data-name="Path 14" d="M-214.93-535.316h-9.653v-37.49h-12.361v-8.034h34.376v8.034H-214.93Z" fill="#0984ae"/>
        <path id="Path_15" data-name="Path 15" d="M-195.562-535.316V-580.84h9.653v45.524Z" fill="#0984ae"/>
        <path id="Path_16" data-name="Path 16" d="M-133.13-558.14q0,11.3-5.6,17.375t-16.067,6.071q-10.462,0-16.068-6.071t-5.6-17.437q0-11.365,5.62-17.36t16.114-5.994q10.493,0,16.052,6.041T-133.13-558.14Zm-33.224,0q0,7.629,2.9,11.489t8.656,3.862q11.552,0,11.552-15.351,0-15.383-11.49-15.383-5.761,0-8.687,3.877T-166.354-558.14Z" fill="#0984ae"/>
        <path id="Path_17" data-name="Path 17" d="M-83.31-535.316H-95.578l-19.8-34.439h-.281q.591,9.125.592,13.016v21.423h-8.625V-580.84h12.174l19.773,34.1h.218Q-92-555.618-92-559.292V-580.84h8.687Z" fill="#0984ae"/>
        <path id="Path_18" data-name="Path 18" d="M-44.979-547.958a11.769,11.769,0,0,1-4.437,9.715q-4.437,3.549-12.346,3.549a29,29,0,0,1-12.891-2.739V-546.4a53.037,53.037,0,0,0,7.8,2.9,23.056,23.056,0,0,0,5.838.841,8.3,8.3,0,0,0,4.873-1.214,4.153,4.153,0,0,0,1.7-3.612,3.992,3.992,0,0,0-.748-2.382,8.363,8.363,0,0,0-2.195-2.009,56.723,56.723,0,0,0-5.9-3.082,27.94,27.94,0,0,1-6.258-3.768,14.115,14.115,0,0,1-3.332-4.2,11.984,11.984,0,0,1-1.246-5.6,11.763,11.763,0,0,1,4.1-9.5q4.093-3.456,11.319-3.457a26.7,26.7,0,0,1,6.772.841,46.744,46.744,0,0,1,6.741,2.366l-3.114,7.505a45.55,45.55,0,0,0-6.024-2.086,19.377,19.377,0,0,0-4.687-.592,6.207,6.207,0,0,0-4.2,1.277,4.208,4.208,0,0,0-1.463,3.331,4.118,4.118,0,0,0,.592,2.227,6.5,6.5,0,0,0,1.884,1.837A57.872,57.872,0,0,0-56.1-561.6q6.383,3.051,8.75,6.118A11.947,11.947,0,0,1-44.979-547.958Z" fill="#0984ae"/>
      </g>
      <g id="options-icon" transform="translate(217 327)">
        <path id="Path_127" data-name="Path 127" d="M82.037,33.77,63.891,3.619A1.5,1.5,0,0,0,62.527,2.8a1.939,1.939,0,0,0-.819.273L53.25,8.257l3.411,3.411,4.775-3L76.443,33.5,40.152,55.6,26.1,69.515,81.491,35.953A1.475,1.475,0,0,0,82.037,33.77Z" transform="translate(9.611 1.02)" fill="#0984ae"/>
        <path id="Path_128" data-name="Path 128" d="M73.836,25.513,49.006.409a1.66,1.66,0,0,0-2.183,0L.437,46.386a1.57,1.57,0,0,0,0,2.319l24.83,24.967a1.66,1.66,0,0,0,2.183,0L73.7,27.7A1.426,1.426,0,0,0,73.836,25.513ZM48.051,46.8a14.538,14.538,0,0,1-10.369,4.229,14.12,14.12,0,0,1-10.369-4.366A14.666,14.666,0,0,1,37.819,21.692a14.12,14.12,0,0,1,10.369,4.366A14.782,14.782,0,0,1,48.051,46.8ZM26.495,68.215,6.03,47.614l13.1-12.961a18.563,18.563,0,0,0,5.321,15.007,19.166,19.166,0,0,0,13.234,5.594,10.326,10.326,0,0,0,2.046-.136ZM56.373,38.473a18.527,18.527,0,0,0-5.321-15.28A19.166,19.166,0,0,0,37.819,17.6a7.779,7.779,0,0,0-1.774.136L47.914,5.867l20.465,20.6Z" transform="translate(0.075)" fill="#0984ae"/>
        <path id="Path_129" data-name="Path 129" d="M38.145,31.915a5.078,5.078,0,0,0-.273-2.456,6.163,6.163,0,0,0-1.5-2.319,5.714,5.714,0,0,0-2.183-1.5,5.45,5.45,0,0,0-2.592-.273A27.858,27.858,0,0,0,27.5,26.594a5.571,5.571,0,0,1-2.183.546h0a1.972,1.972,0,0,1-.955-.273,1.151,1.151,0,0,1-.273-.955,1.886,1.886,0,0,1,.682-1.228,3.98,3.98,0,0,1,3-.955h.409v-3.82h-.409a10.162,10.162,0,0,0-2.456.273A5.171,5.171,0,0,0,23.547,21l-1.5-1.5L20,21.546l1.364,1.364a5.24,5.24,0,0,0-1.228,3.411A4.525,4.525,0,0,0,21.5,29.732a5.723,5.723,0,0,0,1.91,1.228,4.811,4.811,0,0,0,2.456.136,33.862,33.862,0,0,0,4.366-1.228,8.368,8.368,0,0,1,2.183-.409,1.886,1.886,0,0,1,1.228.682,2.052,2.052,0,0,1,.546,1.5,2.517,2.517,0,0,1-.682,1.637q-1.433,1.433-4.5,1.228h-.273v3.82H29a15.216,15.216,0,0,0,3.684-.409,7.584,7.584,0,0,0,2.319-1.228L37.19,39.01l2.046-2.046-2.319-2.319A7.292,7.292,0,0,0,38.145,31.915Z" transform="translate(7.388 7.104)" fill="#0984ae"/>
      </g>
    </g>
  </g>
</svg>
