<svg xmlns="http://www.w3.org/2000/svg" width="403.753" height="67.115" viewBox="0 0 403.753 67.115">
  <g id="Group_1973" data-name="Group 1973" transform="translate(-223 -948)">
    <g id="Group_6" data-name="Group 6" transform="translate(59.093 1441.999)">
      <path id="Path_39" data-name="Path 39" d="M299-450.463a11.767,11.767,0,0,1-4.438,9.715q-4.437,3.549-12.346,3.55a28.988,28.988,0,0,1-12.891-2.74v-8.968a53.173,53.173,0,0,0,7.8,2.9,23.1,23.1,0,0,0,5.839.84,8.308,8.308,0,0,0,4.873-1.213,4.156,4.156,0,0,0,1.7-3.613,3.992,3.992,0,0,0-.748-2.382,8.343,8.343,0,0,0-2.2-2.008,56.406,56.406,0,0,0-5.9-3.082,27.939,27.939,0,0,1-6.258-3.769,14.115,14.115,0,0,1-3.332-4.2,11.991,11.991,0,0,1-1.246-5.605,11.765,11.765,0,0,1,4.1-9.5Q278.046-484,285.27-484a26.74,26.74,0,0,1,6.772.841,46.777,46.777,0,0,1,6.741,2.366l-3.113,7.505a45.759,45.759,0,0,0-6.025-2.086,19.421,19.421,0,0,0-4.687-.592,6.2,6.2,0,0,0-4.2,1.277,4.208,4.208,0,0,0-1.464,3.332,4.117,4.117,0,0,0,.592,2.226,6.488,6.488,0,0,0,1.884,1.837,57.928,57.928,0,0,0,6.119,3.192q6.383,3.053,8.749,6.119A11.937,11.937,0,0,1,299-450.463Z" fill="#f3911b"/>
      <path id="Path_40" data-name="Path 40" d="M326.59-475.965a9.84,9.84,0,0,0-8.439,4.1q-2.99,4.095-2.989,11.412,0,15.227,11.428,15.227a36.116,36.116,0,0,0,11.614-2.4v8.1a32.25,32.25,0,0,1-12.517,2.335q-9.935,0-15.2-6.025t-5.262-17.3a28.246,28.246,0,0,1,2.584-12.44,18.678,18.678,0,0,1,7.427-8.189A21.964,21.964,0,0,1,326.59-484a30.65,30.65,0,0,1,13.327,3.207l-3.114,7.848a51.437,51.437,0,0,0-5.138-2.118A15.328,15.328,0,0,0,326.59-475.965Z" fill="#f3911b"/>
      <path id="Path_41" data-name="Path 41" d="M375.757-437.821l-3.3-10.836h-16.6l-3.3,10.836h-10.4l16.068-45.71h11.8l16.13,45.71Zm-5.6-18.932Q365.576-471.48,365-473.412t-.825-3.051q-1.029,3.987-5.886,19.71Z" fill="#f3911b"/>
      <path id="Path_42" data-name="Path 42" d="M432.272-437.821H420l-19.8-34.438h-.28q.591,9.125.592,13.015v21.423h-8.625v-45.523h12.175l19.772,34.1h.218q-.468-8.874-.467-12.548v-21.547h8.687Z" fill="#f3911b"/>
      <path id="Path_43" data-name="Path 43" d="M484.117-437.821H471.849l-19.8-34.438h-.28q.591,9.125.591,13.015v21.423h-8.625v-45.523h12.175l19.773,34.1h.217q-.467-8.874-.466-12.548v-21.547h8.687Z" fill="#f3911b"/>
      <path id="Path_44" data-name="Path 44" d="M521.794-437.821H495.576v-45.523h26.218v7.909H505.229v9.995h15.413v7.909H505.229v11.739h16.565Z" fill="#f3911b"/>
      <path id="Path_45" data-name="Path 45" d="M540.944-455.289v17.468h-9.653v-45.523h13.265q9.279,0,13.732,3.378t4.452,10.26a12.069,12.069,0,0,1-2.211,7.146,14.61,14.61,0,0,1-6.258,4.9q10.275,15.351,13.389,19.835H556.949l-10.867-17.468Zm0-7.847h3.114q4.577,0,6.756-1.526a5.442,5.442,0,0,0,2.18-4.8,4.98,4.98,0,0,0-2.226-4.608q-2.227-1.369-6.9-1.37h-2.927Z" fill="#f3911b"/>
    </g>
    <g id="scanner-icon" transform="translate(223 948)">
      <path id="Path_134" data-name="Path 134" d="M72.278,0H2.816A2.78,2.78,0,0,0,0,2.816V64.3a2.761,2.761,0,0,0,1.232,2.288v.469h1a2,2,0,0,0,.587.059H72.278a1.809,1.809,0,0,0,.587-.059h.117V67a2.833,2.833,0,0,0,2.053-2.7V2.816A2.7,2.7,0,0,0,72.278,0ZM11.088,64.593H2.581a.355.355,0,0,1-.176-.352V56.966h8.683Zm0-10.032H2.405V46.7h8.683Zm0-10.267H2.405V35.963h8.683Zm0-10.736H2.405V24.523h8.683Zm0-11.44H2.405v-8.8h8.683Zm20.24,42.475H13.493V56.966H31.328Zm0-10.032H13.493V46.7H31.328Zm0-10.267H13.493V35.963H31.328Zm0-10.736H13.493V24.523H31.328Zm0-11.44H13.493v-8.8H31.328Zm0-11.205H13.493V2.405H31.328ZM51.8,64.593H33.734V56.966H51.744v7.627Zm0-10.032H33.734V46.7H51.744V54.56Zm0-10.267H33.734V35.963H51.744v8.331Zm0-10.736H33.734V24.523H51.744v9.035Zm0-11.44H33.734v-8.8H51.744v8.8Zm0-11.205H33.734V2.405H51.744v8.507ZM72.689,64.241a.507.507,0,0,1-.176.352h-18.3V56.966h18.48Zm0-9.68H54.208V46.7h18.48Zm0-10.267H54.208V35.963h18.48Zm0-10.736H54.208V24.523h18.48Zm0-11.44H54.208v-8.8h18.48Zm0-11.205H54.208V2.405H72.337a.4.4,0,0,1,.411.411v8.1Zm-43.12,31.5H15.136V37.371H29.568Zm20.358.176H35.494V37.547H49.926Zm20.944-.117H56.379V37.43H70.811v5.045Zm0,0" fill="#f3911b"/>
    </g>
  </g>
</svg>
