<svg id="scanner-icon" xmlns="http://www.w3.org/2000/svg" width="75.037" height="67.115" viewBox="0 0 75.037 67.115">
  <path id="Path_134" data-name="Path 134" d="M72.278,0H2.816A2.78,2.78,0,0,0,0,2.816V64.3a2.761,2.761,0,0,0,1.232,2.288v.469h1a2,2,0,0,0,.587.059H72.278a1.809,1.809,0,0,0,.587-.059h.117V67a2.833,2.833,0,0,0,2.053-2.7V2.816A2.7,2.7,0,0,0,72.278,0ZM11.088,64.593H2.581a.355.355,0,0,1-.176-.352V56.966h8.683Zm0-10.032H2.405V46.7h8.683Zm0-10.267H2.405V35.963h8.683Zm0-10.736H2.405V24.523h8.683Zm0-11.44H2.405v-8.8h8.683Zm20.24,42.475H13.493V56.966H31.328Zm0-10.032H13.493V46.7H31.328Zm0-10.267H13.493V35.963H31.328Zm0-10.736H13.493V24.523H31.328Zm0-11.44H13.493v-8.8H31.328Zm0-11.205H13.493V2.405H31.328ZM51.8,64.593H33.734V56.966H51.744v7.627Zm0-10.032H33.734V46.7H51.744V54.56Zm0-10.267H33.734V35.963H51.744v8.331Zm0-10.736H33.734V24.523H51.744v9.035Zm0-11.44H33.734v-8.8H51.744v8.8Zm0-11.205H33.734V2.405H51.744v8.507ZM72.689,64.241a.507.507,0,0,1-.176.352h-18.3V56.966h18.48Zm0-9.68H54.208V46.7h18.48Zm0-10.267H54.208V35.963h18.48Zm0-10.736H54.208V24.523h18.48Zm0-11.44H54.208v-8.8h18.48Zm0-11.205H54.208V2.405H72.337a.4.4,0,0,1,.411.411v8.1Zm-43.12,31.5H15.136V37.371H29.568Zm20.358.176H35.494V37.547H49.926Zm20.944-.117H56.379V37.43H70.811v5.045Zm0,0" fill="#f3911b"/>
</svg>
