<svg xmlns="http://www.w3.org/2000/svg" width="1173.577" height="104" viewBox="0 0 1173.577 104">
  <g id="Group_5107" data-name="Group 5107" transform="translate(-0.956 -1.744)">
    <g id="Group_5104" data-name="Group 5104" transform="translate(129.109 8.444)">
      <path id="Path_22334" data-name="Path 22334" d="M105.706,69.044c0,7.866-2.984,14.105-8.68,18.717s-13.563,6.781-23.871,6.781c-9.494,0-17.632-1.628-24.956-5.154V72.028a99.75,99.75,0,0,0,14.919,5.7,44.061,44.061,0,0,0,11.122,1.628c4.069,0,7.324-.814,9.494-2.441s3.255-3.8,3.255-7.053a9.145,9.145,0,0,0-1.356-4.611,15.073,15.073,0,0,0-4.34-3.8c-1.9-1.356-5.7-3.255-11.393-5.968-5.425-2.441-9.494-4.883-11.935-7.324a26.958,26.958,0,0,1-6.51-8.138,22.872,22.872,0,0,1-2.441-10.85c0-7.866,2.713-13.834,7.866-18.174s12.478-6.781,21.7-6.781A50.359,50.359,0,0,1,91.6,5.842a108.449,108.449,0,0,1,13.02,4.611L98.654,24.83A102.869,102.869,0,0,0,86.99,20.761a33.7,33.7,0,0,0-8.951-1.085q-5.29,0-8.138,2.441a8.042,8.042,0,0,0-2.713,6.51,7.96,7.96,0,0,0,1.085,4.34A14.409,14.409,0,0,0,71.8,36.494c1.628,1.085,5.7,3.255,11.664,6.239C91.6,46.53,97.3,50.6,100.281,54.4,104.079,58.465,105.706,63.348,105.706,69.044Z" transform="translate(-48.2 -4.214)" fill="#fff"/>
      <path id="Path_22335" data-name="Path 22335" d="M75.2,92.43V4.814H93.917V92.43Z" transform="translate(-1.961 -3.186)" fill="#fff"/>
      <path id="Path_22336" data-name="Path 22336" d="M127.362,92.6,106.2,23.7h-.543c.814,14.105,1.085,23.328,1.085,27.939V92.33H90.2V4.714h25.227l20.887,67h.271l21.972-67h25.227V92.33H166.694V44.046c0-2.441.271-9.494.814-20.344h-.543L144.451,92.33H127.362Z" transform="translate(23.728 -3.358)" fill="#fff"/>
      <path id="Path_22337" data-name="Path 22337" d="M193.662,32.04c0,9.494-2.984,16.547-8.951,21.7-5.968,4.883-14.377,7.6-25.227,7.6h-7.866V92.53H132.9V4.914h27.939c10.579,0,18.717,2.17,24.142,6.781C190.949,16.036,193.662,22.817,193.662,32.04ZM151.617,45.874h6.239c5.7,0,10.036-1.085,12.749-3.255a11.92,11.92,0,0,0,4.34-9.765c0-4.34-1.085-7.6-3.526-9.765s-6.239-3.255-11.122-3.255h-8.409V45.874Z" transform="translate(96.855 -3.015)" fill="#fff"/>
      <path id="Path_22338" data-name="Path 22338" d="M161.4,92.43V4.814h18.717V77.24h35.535V92.7H161.4Z" transform="translate(145.663 -3.186)" fill="#fff"/>
      <path id="Path_22339" data-name="Path 22339" d="M237.454,92.43H187V4.814h50.454V20H205.445V39.264h29.567v15.19H205.445V76.968h32.008Z" transform="translate(189.505 -3.186)" fill="#fff"/>
      <path id="Path_22340" data-name="Path 22340" d="M231.017,58.794V92.43H212.3V4.814h25.5c11.935,0,20.616,2.17,26.583,6.51,5.7,4.34,8.68,10.85,8.68,19.8a22.686,22.686,0,0,1-4.34,13.834c-2.713,4.069-6.781,7.053-11.935,9.494,13.292,19.8,21.7,32.551,25.769,38.247H261.94L240.782,58.794Zm0-15.19h5.968c5.968,0,10.308-1.085,13.02-2.984s4.069-5.154,4.069-9.223-1.356-7.053-4.34-8.951c-2.984-1.628-7.324-2.713-13.292-2.713h-5.7V43.6Z" transform="translate(232.833 -3.186)" fill="#fff"/>
      <path id="Path_22341" data-name="Path 22341" d="M273.121,92.43h-6.239V10.51H238.4v-5.7h63.2v5.7H273.121V92.43Z" transform="translate(277.531 -3.186)" fill="#fff"/>
      <path id="Path_22342" data-name="Path 22342" d="M272.639,54.183V92.43H266.4V4.814h20.887c10.85,0,18.988,1.9,24.142,5.968S319.3,20.818,319.3,28.956a24.421,24.421,0,0,1-4.611,14.919c-2.984,4.069-7.867,7.053-14.105,8.68L324.449,92.43h-7.324L294.611,54.183Zm0-5.154h16.818q10.986,0,17.089-4.883c4.069-3.255,6.239-8.138,6.239-14.648,0-6.781-1.9-11.664-5.968-14.648s-10.579-4.611-19.53-4.611H272.639v38.79Z" transform="translate(325.483 -3.186)" fill="#fff"/>
      <path id="Path_22343" data-name="Path 22343" d="M343.423,61.849H307.888L295.681,92.772H288.9L324.163,4.614h3.8l34.45,88.158h-7.053Zm-33.636-5.425h31.466L329.317,24.687a108.724,108.724,0,0,1-3.526-10.308,76,76,0,0,1-3.526,10.308Z" transform="translate(364.015 -3.529)" fill="#fff"/>
      <path id="Path_22344" data-name="Path 22344" d="M387.058,47.673c0,14.648-3.8,25.769-11.664,33.365-7.6,7.6-18.988,11.393-33.907,11.393H320.6V4.814h23.6c14.105,0,24.684,3.526,32.008,10.85S387.058,33.838,387.058,47.673Zm-6.51.271c0-12.478-3.255-21.972-9.494-28.211-6.51-6.239-15.733-9.494-28.211-9.494h-16V87.276h14.648C367.256,87,380.548,73.985,380.548,47.944Z" transform="translate(418.304 -3.186)" fill="#fff"/>
      <path id="Path_22345" data-name="Path 22345" d="M352.5,92.43V4.814h6.239V92.43Z" transform="translate(472.935 -3.186)" fill="#fff"/>
      <path id="Path_22346" data-name="Path 22346" d="M427.917,92.43h-6.239L369.6,14.579h-.543c.543,9.223.814,16.275.814,20.887V92.43H363.9V4.814h6.239l51.81,77.851h.271c-.271-7.324-.542-14.105-.542-20.616V4.814h5.968V92.43Z" transform="translate(492.458 -3.186)" fill="#fff"/>
      <path id="Path_22347" data-name="Path 22347" d="M433.961,48.9h32.28V89.046a73.028,73.028,0,0,1-28.482,5.425c-13.834,0-24.413-3.8-31.737-11.664S394.9,63.819,394.9,49.714a50.478,50.478,0,0,1,5.425-23.6,38.87,38.87,0,0,1,15.733-16q10.172-5.7,23.6-5.7c9.494,0,18.174,1.628,25.769,5.154l-2.441,5.425a55.285,55.285,0,0,0-23.6-5.154c-11.664,0-20.615,3.526-27.4,10.579s-10.036,16.818-10.036,28.753c0,13.292,3.255,23.057,9.765,29.838s16,10.037,28.482,10.037c8.138,0,14.919-1.085,20.616-3.526V54.6H434.775V48.9Z" transform="translate(545.548 -3.871)" fill="#fff"/>
    </g>
    <g id="Group_5105" data-name="Group 5105" transform="translate(0.956 1.744)">
      <path id="Path_22348" data-name="Path 22348" d="M101.31,53.744H99.954A49.72,49.72,0,0,1,85.84,88.606a47.353,47.353,0,0,1-68.061,0,50.12,50.12,0,0,1,0-69.724,47.353,47.353,0,0,1,68.061,0A49.73,49.73,0,0,1,99.954,53.744h2.713A52.451,52.451,0,0,0,87.783,16.986a50.068,50.068,0,0,0-71.943,0,52.832,52.832,0,0,0,0,73.516,50.068,50.068,0,0,0,71.943,0,52.441,52.441,0,0,0,14.884-36.758Z" transform="translate(-0.956 -1.744)" fill="#fff"/>
      <path id="Path_22349" data-name="Path 22349" d="M68.7,13.864a5.73,5.73,0,0,0-5.7,5.7A7.92,7.92,0,0,0,63.55,22L45.918,39.633a7.92,7.92,0,0,0-2.441-.543,7.92,7.92,0,0,0-2.441.543l-6.51-6.51a6.384,6.384,0,0,0,.543-2.17,5.73,5.73,0,0,0-5.7-5.7,5.562,5.562,0,0,0-5.7,5.7,5.11,5.11,0,0,0,.543,2.17l-8.409,8.409a5.234,5.234,0,0,0-2.713-.814,5.7,5.7,0,0,0,0,11.393,5.562,5.562,0,0,0,5.7-5.7,3.44,3.44,0,0,0-.271-1.628l8.68-8.68a6.384,6.384,0,0,0,2.17.543,5.11,5.11,0,0,0,2.17-.543l6.51,6.51a5.11,5.11,0,0,0-.543,2.17,5.7,5.7,0,1,0,11.393,0,6.384,6.384,0,0,0-.543-2.17l17.9-17.9a5.288,5.288,0,0,0,2.17.271,5.73,5.73,0,0,0,5.7-5.7C74.4,16.305,71.959,13.864,68.7,13.864Z" transform="translate(10.08 19.012)" fill="#fff"/>
    </g>
    <g id="Group_5106" data-name="Group 5106" transform="translate(1150.662 9.8)">
      <path id="Path_22350" data-name="Path 22350" d="M424.8,16.649a11.615,11.615,0,0,1,1.628-5.968,11.127,11.127,0,0,1,4.34-4.34,11.754,11.754,0,0,1,11.935,0,11.127,11.127,0,0,1,4.34,4.34,11.615,11.615,0,0,1,1.628,5.968,10.028,10.028,0,0,1-1.628,5.7,11.127,11.127,0,0,1-4.34,4.34,11.754,11.754,0,0,1-11.935,0,11.127,11.127,0,0,1-4.34-4.34A10.028,10.028,0,0,1,424.8,16.649Zm1.356,0a11.22,11.22,0,0,0,1.356,5.154,10.2,10.2,0,0,0,3.8,3.8,10.47,10.47,0,0,0,10.308,0,10.2,10.2,0,0,0,3.8-3.8,8.675,8.675,0,0,0,1.356-5.154,11.219,11.219,0,0,0-1.356-5.154,10.2,10.2,0,0,0-3.8-3.8,8.675,8.675,0,0,0-5.154-1.356A11.22,11.22,0,0,0,431.31,7.7a10.2,10.2,0,0,0-3.8,3.8A11.22,11.22,0,0,0,426.156,16.649Zm14.377-2.984a5.109,5.109,0,0,1-.543,2.17,3.987,3.987,0,0,1-1.627,1.356l3.8,6.239h-2.17l-3.255-5.7h-2.713v5.7H432.4V9.6h3.255a5,5,0,0,1,3.526,1.085A3.181,3.181,0,0,1,440.533,13.665Zm-6.239,2.984h1.628a3.08,3.08,0,0,0,2.17-.814,2.67,2.67,0,0,0,.814-2.17c0-1.9-1.085-2.713-2.984-2.713h-1.628v5.7Z" transform="translate(-424.8 -4.714)" fill="#fff"/>
    </g>
  </g>
</svg>
