<svg id="edge-icon" xmlns="http://www.w3.org/2000/svg" width="85.996" height="85.782" viewBox="0 0 85.996 85.782">
  <g id="Group_1968" data-name="Group 1968" transform="translate(0 0)">
    <path id="Path_470" data-name="Path 470" d="M45.149,37.873,38.734,43.73l-.558.558a9.633,9.633,0,1,1-10.738-11.3l.279-.279,2.51-2.789h0c1.116-1.255,2.371-2.65,3.347-3.626a18.98,18.98,0,0,0-5.021-.7A17.016,17.016,0,1,0,45.847,42.475,15.924,15.924,0,0,0,45.149,37.873Z" transform="translate(4.498 10.115)" fill="#90bde1"/>
    <path id="Path_471" data-name="Path 471" d="M62.2,30.954c-1.952,1.674-3.765,3.487-5.718,5.16A25.861,25.861,0,0,1,33.052,72.792,25.475,25.475,0,0,1,7.531,47.131a25.831,25.831,0,0,1,25.8-25.8,26.72,26.72,0,0,1,11.157,2.51c1.674-1.813,3.487-3.765,5.16-5.718A32.921,32.921,0,0,0,33.192,13.8a33.261,33.261,0,0,0,0,66.523A33.271,33.271,0,0,0,66.383,47.131,33.646,33.646,0,0,0,62.2,30.954Z" transform="translate(0 5.459)" fill="#90bde1"/>
    <g id="Group_1967" data-name="Group 1967" transform="translate(31.578)">
      <path id="Path_472" data-name="Path 472" d="M76.833,15.763a6.063,6.063,0,0,0-.558-.976,3.438,3.438,0,0,0-2.51-.837H63.445l-.139-.279-.279-.139V3.211A3.438,3.438,0,0,0,62.19.7a2.248,2.248,0,0,0-.976-.558,3.4,3.4,0,0,0-3.347.976c-.837.976-1.813,1.813-2.65,2.789C53.125,6,51.033,8.093,48.941,10.324a4.235,4.235,0,0,0-1.116,2.929v9.065a2.478,2.478,0,0,1-.558,1.395c-3.487,3.9-7.112,7.81-10.6,11.715L33.74,38.634c-1.534,1.674-5.16,5.718-6.415,6.973h0l-.418.418c-.279.279-.558.7-.837.976-.976,1.116-2.092,2.371-3.068,3.626a2.752,2.752,0,0,0,.418,3.208l.139.139a2.343,2.343,0,0,0,3.068.279c1.395-1.116,2.65-2.231,3.765-3.208.279-.279.7-.558.976-.837l10.6-9.762c3.765-3.487,7.81-7.112,11.715-10.6a2.478,2.478,0,0,1,1.395-.558h9.065a5.391,5.391,0,0,0,2.929-1.116c2.231-2.092,4.323-4.184,6.415-6.276.976-.837,1.813-1.813,2.789-2.65C76.415,18.552,77.53,17.436,76.833,15.763Z" transform="translate(-22.643 0.01)" fill="#90bde1"/>
    </g>
  </g>
</svg>
