<svg xmlns="http://www.w3.org/2000/svg" width="549.932" height="85.782" viewBox="0 0 549.932 85.782">
  <g id="Group_1969" data-name="Group 1969" transform="translate(-223 -137)">
    <g id="Group_1" data-name="Group 1" transform="translate(654.093 830.489)">
      <path id="Path_1" data-name="Path 1" d="M-296.418-640.953a11.769,11.769,0,0,1-4.437,9.715q-4.437,3.549-12.347,3.549a29.008,29.008,0,0,1-12.891-2.739V-639.4a53.042,53.042,0,0,0,7.8,2.9,23.049,23.049,0,0,0,5.838.841,8.307,8.307,0,0,0,4.873-1.214,4.154,4.154,0,0,0,1.7-3.612,3.986,3.986,0,0,0-.747-2.382,8.351,8.351,0,0,0-2.2-2.009,56.476,56.476,0,0,0-5.9-3.082,27.976,27.976,0,0,1-6.259-3.768,14.13,14.13,0,0,1-3.332-4.2,12,12,0,0,1-1.245-5.6,11.762,11.762,0,0,1,4.094-9.5q4.095-3.457,11.319-3.457a26.709,26.709,0,0,1,6.773.841,46.537,46.537,0,0,1,6.741,2.366l-3.114,7.5a45.537,45.537,0,0,0-6.025-2.085,19.363,19.363,0,0,0-4.686-.592,6.207,6.207,0,0,0-4.2,1.277,4.208,4.208,0,0,0-1.463,3.331,4.129,4.129,0,0,0,.591,2.227,6.5,6.5,0,0,0,1.884,1.837,58.445,58.445,0,0,0,6.119,3.192q6.383,3.051,8.749,6.118A11.94,11.94,0,0,1-296.418-640.953Z" fill="#96c0e1"/>
      <path id="Path_2" data-name="Path 2" d="M-288.167-628.311v-45.524h9.653v45.524Z" fill="#96c0e1"/>
      <path id="Path_3" data-name="Path 3" d="M-247.78-628.311l-10.961-35.716h-.28q.591,10.9.591,14.542v21.174h-8.625v-45.524h13.14l10.774,34.812h.187l11.428-34.812h13.14v45.524h-9v-21.548q0-1.525.047-3.518t.42-10.587h-.28l-11.739,35.653Z" fill="#96c0e1"/>
      <path id="Path_4" data-name="Path 4" d="M-175.478-659.636q0,7.35-4.593,11.241t-13.062,3.892h-4.141v16.192h-9.653v-45.524h14.541q8.283,0,12.6,3.565T-175.478-659.636Zm-21.8,7.224h3.175q4.453,0,6.664-1.76a6.154,6.154,0,0,0,2.211-5.122,6.315,6.315,0,0,0-1.853-5.013q-1.853-1.618-5.807-1.619h-4.39Z" fill="#96c0e1"/>
      <path id="Path_5" data-name="Path 5" d="M-166.884-628.311v-45.524h9.653v37.553h18.465v7.971Z" fill="#96c0e1"/>
      <path id="Path_6" data-name="Path 6" d="M-104.639-628.311h-26.218v-45.524h26.218v7.909H-121.2v9.995h15.413v7.909H-121.2v11.74h16.565Z" fill="#96c0e1"/>
      <path id="Path_7" data-name="Path 7" d="M-85.489-645.779v17.468h-9.653v-45.524h13.265q9.279,0,13.732,3.378t4.453,10.261A12.078,12.078,0,0,1-65.9-653.05a14.627,14.627,0,0,1-6.259,4.9q10.275,15.351,13.39,19.835H-69.484l-10.867-17.468Zm0-7.848h3.114q4.577,0,6.757-1.525a5.449,5.449,0,0,0,2.18-4.8,4.984,4.984,0,0,0-2.227-4.609q-2.226-1.369-6.9-1.37h-2.927Z" fill="#96c0e1"/>
      <path id="Path_8" data-name="Path 8" d="M-10.259-628.311H-36.478v-45.524h26.219v7.909H-26.825v9.995h15.413v7.909H-26.825v11.74h16.566Z" fill="#96c0e1"/>
      <path id="Path_9" data-name="Path 9" d="M37.008-651.509q0,11.241-6.4,17.219t-18.481,5.979H-.763v-45.524H13.53q11.147,0,17.312,5.885T37.008-651.509Zm-10.027.249q0-14.665-12.953-14.666H8.89v29.644h4.141Q26.981-636.282,26.981-651.26Z" fill="#96c0e1"/>
      <path id="Path_10" data-name="Path 10" d="M63.725-653.876H81.784v23.6a51,51,0,0,1-8.267,2.009,53.985,53.985,0,0,1-7.924.575q-10.308,0-15.74-6.056t-5.434-17.39q0-11.023,6.305-17.188t17.484-6.166a33.835,33.835,0,0,1,13.514,2.8l-3.207,7.723a22.9,22.9,0,0,0-10.369-2.491,12.805,12.805,0,0,0-10.026,4.2q-3.77,4.2-3.768,11.3,0,7.41,3.036,11.318t8.827,3.908a31.18,31.18,0,0,0,6.135-.623v-9.5H63.725Z" fill="#96c0e1"/>
      <path id="Path_11" data-name="Path 11" d="M118.839-628.311H92.621v-45.524h26.218v7.909H102.273v9.995h15.414v7.909H102.273v11.74h16.566Z" fill="#96c0e1"/>
    </g>
    <g id="edge-icon" transform="translate(223 137)">
      <g id="Group_1968" data-name="Group 1968" transform="translate(0 0)">
        <path id="Path_470" data-name="Path 470" d="M45.149,37.873,38.734,43.73l-.558.558a9.633,9.633,0,1,1-10.738-11.3l.279-.279,2.51-2.789h0c1.116-1.255,2.371-2.65,3.347-3.626a18.98,18.98,0,0,0-5.021-.7A17.016,17.016,0,1,0,45.847,42.475,15.924,15.924,0,0,0,45.149,37.873Z" transform="translate(4.498 10.115)" fill="#96c0e1"/>
        <path id="Path_471" data-name="Path 471" d="M62.2,30.954c-1.952,1.674-3.765,3.487-5.718,5.16A25.861,25.861,0,0,1,33.052,72.792,25.475,25.475,0,0,1,7.531,47.131a25.831,25.831,0,0,1,25.8-25.8,26.72,26.72,0,0,1,11.157,2.51c1.674-1.813,3.487-3.765,5.16-5.718A32.921,32.921,0,0,0,33.192,13.8a33.261,33.261,0,0,0,0,66.523A33.271,33.271,0,0,0,66.383,47.131,33.646,33.646,0,0,0,62.2,30.954Z" transform="translate(0 5.459)" fill="#96c0e1"/>
        <g id="Group_1967" data-name="Group 1967" transform="translate(31.578)">
          <path id="Path_472" data-name="Path 472" d="M76.833,15.763a6.063,6.063,0,0,0-.558-.976,3.438,3.438,0,0,0-2.51-.837H63.445l-.139-.279-.279-.139V3.211A3.438,3.438,0,0,0,62.19.7a2.248,2.248,0,0,0-.976-.558,3.4,3.4,0,0,0-3.347.976c-.837.976-1.813,1.813-2.65,2.789C53.125,6,51.033,8.093,48.941,10.324a4.235,4.235,0,0,0-1.116,2.929v9.065a2.478,2.478,0,0,1-.558,1.395c-3.487,3.9-7.112,7.81-10.6,11.715L33.74,38.634c-1.534,1.674-5.16,5.718-6.415,6.973h0l-.418.418c-.279.279-.558.7-.837.976-.976,1.116-2.092,2.371-3.068,3.626a2.752,2.752,0,0,0,.418,3.208l.139.139a2.343,2.343,0,0,0,3.068.279c1.395-1.116,2.65-2.231,3.765-3.208.279-.279.7-.558.976-.837l10.6-9.762c3.765-3.487,7.81-7.112,11.715-10.6a2.478,2.478,0,0,1,1.395-.558h9.065a5.391,5.391,0,0,0,2.929-1.116c2.231-2.092,4.323-4.184,6.415-6.276.976-.837,1.813-1.813,2.789-2.65C76.415,18.552,77.53,17.436,76.833,15.763Z" transform="translate(-22.643 0.01)" fill="#96c0e1"/>
        </g>
      </g>
    </g>
  </g>
</svg>
