<svg xmlns="http://www.w3.org/2000/svg" width="59.401" height="80.218" viewBox="0 0 59.401 80.218">
  <g id="small-account-mastery-icon" transform="translate(-973.52 -1885.378)">
    <path id="Path_3288" data-name="Path 3288" d="M218.83,3316.992l-9.2-21.664a20.638,20.638,0,0,1,2.527-1.971c2.072-1.451,4.421-3.095,5.451-5.825s.366-5.552-.219-8.041a18.175,18.175,0,0,1-.611-3.56,18.644,18.644,0,0,1,.441-3.477c.493-2.646,1.05-5.645-.219-8.544s-3.832-4.487-6.093-5.885a11.748,11.748,0,0,1-5.026-4.835c-1.426-2.108-3.043-4.5-5.726-5.546s-5.457-.374-7.9.221a11.449,11.449,0,0,1-6.916.174c-2.6-.5-5.547-1.07-8.4.223h0c-2.85,1.292-4.408,3.9-5.783,6.2a18.312,18.312,0,0,1-1.958,2.884,17.584,17.584,0,0,1-2.795,2.23c-2.072,1.45-4.42,3.094-5.451,5.826s-.366,5.552.219,8.04a18.226,18.226,0,0,1,.61,3.56,18.586,18.586,0,0,1-.441,3.477c-.492,2.646-1.05,5.644.22,8.545s3.832,4.485,6.093,5.883q.595.366,1.147.724l-9.067,21.359a1.936,1.936,0,0,0,.306,2.009,1.857,1.857,0,0,0,1.913.59l10.272-2.859,5,9.57a1.873,1.873,0,0,0,1.657,1.013h.076a1.879,1.879,0,0,0,1.648-1.152l8.677-20.442,8.678,20.442a1.879,1.879,0,0,0,1.648,1.152h.076a1.874,1.874,0,0,0,1.657-1.013l5-9.57,10.273,2.859a1.863,1.863,0,0,0,1.913-.59A1.934,1.934,0,0,0,218.83,3316.992Zm-53.837-29.521c-.791-1.81-.388-3.981.04-6.28a21.624,21.624,0,0,0,.506-4.26,21.161,21.161,0,0,0-.713-4.377c-.5-2.137-.978-4.158-.365-5.781s2.294-2.8,4.074-4.049a20.5,20.5,0,0,0,3.409-2.767,21.32,21.32,0,0,0,2.425-3.511c1.194-2,2.322-3.887,4.1-4.694h0c1.78-.8,3.913-.395,6.172.041a20.9,20.9,0,0,0,4.187.514,20.019,20.019,0,0,0,4.3-.725c2.1-.512,4.086-.995,5.683-.372s2.754,2.335,3.979,4.146a20.75,20.75,0,0,0,2.72,3.469,20.979,20.979,0,0,0,3.45,2.469c1.965,1.214,3.822,2.362,4.613,4.171s.388,3.981-.039,6.281a21.579,21.579,0,0,0-.506,4.259,21.093,21.093,0,0,0,.713,4.376c.5,2.138.978,4.157.366,5.782s-2.294,2.8-4.074,4.049a20.425,20.425,0,0,0-3.409,2.768,15.162,15.162,0,0,0-1.561,2.1l-.056.09c-.276.435-.545.877-.807,1.317a13.148,13.148,0,0,1-3.388,4.287,4.888,4.888,0,0,1-.713.407,5.543,5.543,0,0,1-2.14.456,19.011,19.011,0,0,1-4.032-.5c-.615-.118-1.24-.234-1.866-.328l-.116-.018c-.205-.03-.409-.051-.613-.073-.14-.016-.281-.034-.421-.047-.208-.018-.414-.023-.62-.031-.1,0-.2-.014-.3-.014h-.011c-.01,0-.019,0-.029,0-.069,0-.14-.008-.21-.007a11.624,11.624,0,0,0-1.409.128c-.017,0-.035,0-.053,0-.083.01-.166.033-.249.046-.343.056-.685.118-1.026.192-.1.021-.206.042-.309.065-.422.094-.842.193-1.257.295-2.1.512-4.088,1-5.683.372s-2.754-2.335-3.979-4.146a28.822,28.822,0,0,0-1.9-2.6c-.022-.026-.041-.054-.062-.079-.141-.162-.294-.311-.442-.464-.1-.108-.2-.225-.312-.328h0c-.01-.01-.022-.018-.032-.029a21.079,21.079,0,0,0-3.416-2.439C167.641,3290.429,165.784,3289.281,164.992,3287.471ZM178.708,3321l-3.869-7.409a1.873,1.873,0,0,0-1.658-1.014,1.852,1.852,0,0,0-.5.068l-7.954,2.213,7-16.485c.094.13.187.26.281.395.057.081.114.16.172.243.124.18.249.365.375.551l.125.183c1.426,2.108,3.042,4.5,5.726,5.545l.014,0a7.738,7.738,0,0,0,.815.263c.1.025.194.042.292.064.181.042.361.08.541.107.114.019.228.031.342.043.164.018.328.034.493.043.119.008.239.012.358.016.071,0,.143.006.216.006.055,0,.108-.006.163-.008.331-.005.66-.022.988-.054.042,0,.086-.005.128-.01.377-.041.751-.1,1.121-.164.08-.014.159-.029.239-.044q.481-.091.951-.2l.151-.034.155-.033Zm27.173-8.355a1.865,1.865,0,0,0-2.153.946L199.859,3321l-6.853-16.144.222.042c2.6.5,5.547,1.065,8.4-.226a8.493,8.493,0,0,0,.977-.525c.1-.063.192-.136.29-.2.2-.136.4-.273.589-.422.105-.084.2-.176.3-.263.167-.146.333-.291.49-.445.1-.1.187-.2.279-.294.149-.158.3-.317.438-.482.084-.1.164-.2.244-.3.142-.176.281-.355.414-.535.068-.092.133-.184.2-.277q.217-.305.423-.616c.043-.065.085-.129.127-.195.243-.376.479-.753.7-1.125l6.735,15.865Z" transform="translate(813.937 -1361.719)" fill="#e5ab00"/>
    <g id="Group_2092" data-name="Group 2092" transform="translate(981.923 1900.629)">
      <path id="Path_3300" data-name="Path 3300" d="M178.344,262.208l-.315-.131h-6.18l-.315.131-.133.317v1.792l.133.317.315.131h2.039l-26.269,26.269a.448.448,0,0,0,0,.634l1.267,1.267.317.131.317-.131,26.269-26.269V268.7l.131.317.317.131h1.792l.315-.131.133-.317v-6.178Z" transform="translate(-140.411 -262.077)" fill="#e5ab00"/>
      <path id="Path_3301" data-name="Path 3301" d="M151.668,272.143l1.267,1.267.317.133.315-.133,1.385-1.385a.448.448,0,0,0,0-.634l-1.267-1.267-.315-.131-.317.131-1.385,1.387A.446.446,0,0,0,151.668,272.143Z" transform="translate(-137.204 -255.809)" fill="#e5ab00"/>
      <path id="Path_3302" data-name="Path 3302" d="M154.5,268.7l-1.444,1.442a.448.448,0,0,0,0,.634l1.267,1.267.317.131.317-.131L156.4,270.6l.131-.317-.131-.315-1.267-1.267A.446.446,0,0,0,154.5,268.7Z" transform="translate(-136.103 -256.936)" fill="#e5ab00"/>
      <path id="Path_3303" data-name="Path 3303" d="M154.663,270.642l1.267,1.267.317.131.317-.131,4.77-4.768.131-.317-.131-.315-1.267-1.267a.448.448,0,0,0-.634,0l-4.77,4.768A.449.449,0,0,0,154.663,270.642Z" transform="translate(-134.832 -259.676)" fill="#e5ab00"/>
      <path id="Path_3304" data-name="Path 3304" d="M149.208,277.771l1.383-1.385.133-.315-.131-.317-1.269-1.267a.445.445,0,0,0-.633,0l-1.385,1.383-.131.317.131.317,1.267,1.267A.451.451,0,0,0,149.208,277.771Z" transform="translate(-140.657 -252.355)" fill="#e5ab00"/>
      <path id="Path_3305" data-name="Path 3305" d="M152.345,271.752l-3.465,3.467a.446.446,0,0,0,0,.633l1.267,1.267.317.133.315-.133,3.467-3.465.131-.317-.131-.317-1.267-1.267A.451.451,0,0,0,152.345,271.752Z" transform="translate(-139.413 -254.519)" fill="#e5ab00"/>
      <path id="Path_3306" data-name="Path 3306" d="M149.983,274.574l.131.317.317.131h1.792l.317-.131.131-.317v-2.705h2.7l.317-.131.131-.317v-1.792l-.131-.317-.317-.131h-2.7v-2.7l-.131-.317-.317-.131h-1.792l-.317.131-.131.317v2.7h-2.7l-.317.131-.131.317v1.792l.131.317.317.131h2.7Z" transform="translate(-119.428 -246.404)" fill="#e5ab00"/>
      <path id="Path_3307" data-name="Path 3307" d="M152.986,265.711h1.692V267.4l.131.317.317.131h1.792l.317-.131.131-.317v-1.692h1.692l.317-.131.131-.317v-1.792l-.131-.317-.317-.131h-1.692v-1.692l-.131-.317-.317-.131h-1.792l-.317.131-.131.317v1.692h-1.692l-.317.131-.131.317v1.792l.131.317Z" transform="translate(-152.538 -255.855)" fill="#e5ab00"/>
    </g>
  </g>
</svg>
