<svg id="Layer_1" data-name="Layer 1" xmlns="http://www.w3.org/2000/svg" viewBox="0 0 38 38"><defs><style>.cls-1{fill:#ffffff;}</style></defs><title>st-icon</title><path class="cls-1" d="M31.86,5.86a17.92,17.92,0,0,0-25.72,0,18.89,18.89,0,0,0,0,26.28,17.92,17.92,0,0,0,25.72,0,18.89,18.89,0,0,0,0-26.28Zm-.7,25.6a16.91,16.91,0,0,1-24.32,0,17.9,17.9,0,0,1,0-24.92,16.91,16.91,0,0,1,24.32,0,17.9,17.9,0,0,1,0,24.92Z"/><path class="cls-1" d="M29,12.16a2.05,2.05,0,0,0-2,2,2.72,2.72,0,0,0,.19.87l-6.3,6.3a3,3,0,0,0-.87-.19,3,3,0,0,0-.88.19l-2.32-2.32a2.47,2.47,0,0,0,.19-.78,2,2,0,0,0-2-2,2,2,0,0,0-1.84,2.81l-3,3a1.91,1.91,0,0,0-1-.29,2,2,0,1,0,0,4.07,2,2,0,0,0,2-2,1.31,1.31,0,0,0-.09-.58l3.1-3.11a2.2,2.2,0,0,0,.77.2,1.75,1.75,0,0,0,.78-.2L18,22.44a1.83,1.83,0,0,0-.2.78,2,2,0,0,0,4.07,0,2.23,2.23,0,0,0-.19-.78l6.4-6.4a1.8,1.8,0,0,0,.77.1,2,2,0,0,0,2-2A1.83,1.83,0,0,0,29,12.16Z"/></svg>