<?xml version="1.0" encoding="utf-8"?>
<!-- Generator: Adobe Illustrator 22.1.0, SVG Export Plug-In . SVG Version: 6.00 Build 0)  -->
<svg version="1.1" id="Layer_1" xmlns="http://www.w3.org/2000/svg" xmlns:xlink="http://www.w3.org/1999/xlink" x="0px" y="0px"
	 viewBox="0 0 504 44.7" style="enable-background:new 0 0 504 44.7;" xml:space="preserve">
<style type="text/css">
	.st0{fill:#FFFFFF;}
</style>
<g>
	<g>
		<path class="st0" d="M79.7,30.7c0,3.4-1.3,6.1-3.7,8s-5.8,2.9-10.3,2.9c-4.1,0-7.6-0.7-10.7-2.2V32c2.6,1.2,4.7,2,6.4,2.4
			c1.7,0.5,3.4,0.7,4.8,0.7c1.7,0,3.1-0.3,4.1-1c0.9-0.7,1.4-1.6,1.4-3c0-0.7-0.2-1.4-0.6-2c-0.5-0.6-1-1.2-1.9-1.6
			c-0.8-0.6-2.4-1.4-4.9-2.6c-2.3-1-4.1-2.1-5.1-3.1c-1.2-1-2.1-2.1-2.8-3.5c-0.7-1.3-1-2.9-1-4.7c0-3.4,1.2-5.9,3.4-7.8
			s5.4-2.9,9.3-2.9c2,0,3.8,0.2,5.6,0.7c1.7,0.5,3.6,1.2,5.6,2l-2.6,6.2c-2-0.8-3.7-1.4-5-1.7s-2.6-0.5-3.8-0.5
			c-1.5,0-2.7,0.3-3.5,1c-0.8,0.7-1.2,1.6-1.2,2.8c0,0.7,0.1,1.3,0.5,1.9c0.3,0.5,0.8,1,1.5,1.5s2.4,1.4,5,2.7
			c3.5,1.6,5.9,3.4,7.2,5C79,26.2,79.7,28.3,79.7,30.7z"/>
		<path class="st0" d="M86.5,41.2V3.6h8v37.6C94.5,41.2,86.5,41.2,86.5,41.2z"/>
		<path class="st0" d="M119.9,41.2l-9.1-29.6h-0.2c0.3,6.1,0.5,10,0.5,12v17.5H104V3.5h10.8l9,28.8h0.1l9.4-28.8h10.8v37.6h-7.3
			V23.3c0-0.8,0-1.9,0-2.9s0.1-4.1,0.3-8.7h-0.2l-9.7,29.5H119.9C119.9,41.2,119.9,41.2,119.9,41.2z"/>
		<path class="st0" d="M179.8,15.3c0,4.1-1.3,7.1-3.8,9.3c-2.6,2.1-6.2,3.3-10.8,3.3h-3.4v13.4h-8V3.7h12c4.5,0,8,0.9,10.4,2.9
			C178.6,8.5,179.8,11.4,179.8,15.3z M161.7,21.3h2.7c2.4,0,4.3-0.5,5.5-1.4s1.9-2.3,1.9-4.2s-0.5-3.3-1.5-4.2s-2.7-1.4-4.8-1.4
			h-3.6v11.2H161.7z"/>
		<path class="st0" d="M186.9,41.2V3.6h8v31.1h15.3v6.6L186.9,41.2L186.9,41.2z"/>
		<path class="st0" d="M238.4,41.2h-21.7V3.6h21.7v6.5h-13.7v8.3h12.7v6.5h-12.7v9.7h13.7V41.2z"/>
		<path class="st0" d="M254.2,26.8v14.4h-8V3.6h11c5.1,0,8.9,0.9,11.4,2.8c2.4,1.9,3.7,4.7,3.7,8.5c0,2.2-0.6,4.2-1.9,5.9
			c-1.2,1.7-2.9,3-5.1,4.1c5.7,8.5,9.3,14,11.1,16.4h-8.9l-9.1-14.6h-4.2V26.8z M254.2,20.2h2.6c2.6,0,4.4-0.5,5.6-1.3
			s1.7-2.2,1.7-4c0-1.7-0.6-3-1.9-3.8c-1.3-0.7-3.1-1.2-5.7-1.2h-2.4L254.2,20.2L254.2,20.2z"/>
		<path class="st0" d="M291.5,41.2h-2.7V6h-12.2V3.6h27.1V6h-12.2L291.5,41.2L291.5,41.2z"/>
		<path class="st0" d="M311.9,24.8v16.4h-2.7V3.6h9c4.7,0,8.2,0.8,10.4,2.6c2.2,1.7,3.4,4.3,3.4,7.8c0,2.6-0.7,4.7-2,6.4
			c-1.3,1.7-3.4,3-6.1,3.7l10.3,17.1H331l-9.7-16.4C321.3,24.8,311.9,24.8,311.9,24.8z M311.9,22.6h7.2c3.1,0,5.6-0.7,7.3-2.1
			c1.7-1.4,2.7-3.5,2.7-6.3c0-2.9-0.8-5-2.6-6.3c-1.7-1.3-4.5-2-8.4-2h-6.3L311.9,22.6L311.9,22.6z"/>
		<path class="st0" d="M358.8,27.9h-15.3l-5.2,13.3h-2.9l15.1-37.9h1.6L367,41.2h-3L358.8,27.9z M344.4,25.6h13.5L352.8,12
			c-0.5-1-0.9-2.6-1.5-4.4c-0.5,1.6-0.9,3.1-1.5,4.4L344.4,25.6z"/>
		<path class="st0" d="M400.9,22c0,6.3-1.6,11.1-5,14.3c-3.3,3.3-8.2,4.9-14.6,4.9h-9V3.6h10.1c6.1,0,10.6,1.5,13.7,4.7
			S400.9,16,400.9,22z M398.1,22.1c0-5.4-1.4-9.4-4.1-12.1c-2.8-2.7-6.8-4.1-12.1-4.1H375V39h6.3C392.4,38.9,398.1,33.3,398.1,22.1z
			"/>
		<path class="st0" d="M409.5,41.2V3.6h2.7v37.6C412.2,41.2,409.5,41.2,409.5,41.2z"/>
		<path class="st0" d="M450.3,41.2h-2.7L425.3,7.8H425c0.2,4,0.3,7,0.3,9v24.5h-2.6V3.6h2.7L447.7,37h0.1c-0.1-3.1-0.2-6.1-0.2-8.9
			V3.6h2.6L450.3,41.2C450.2,41.2,450.3,41.2,450.3,41.2z"/>
		<path class="st0" d="M475.7,22.2h13.9v17.2c-3.6,1.5-7.7,2.3-12.2,2.3c-5.9,0-10.5-1.6-13.6-5s-4.8-8.2-4.8-14.2
			c0-3.8,0.8-7.2,2.3-10.1s3.8-5.2,6.8-6.9s6.3-2.4,10.1-2.4c4.1,0,7.8,0.7,11.1,2.2l-1,2.3c-3.3-1.5-6.6-2.2-10.1-2.2
			c-5,0-8.9,1.5-11.8,4.5s-4.3,7.2-4.3,12.3c0,5.7,1.4,9.9,4.2,12.8c2.8,2.9,6.9,4.3,12.2,4.3c3.5,0,6.4-0.5,8.9-1.5V24.7H476v-2.4
			h-0.3V22.2z"/>
	</g>
	<g>
		<path class="st0" d="M43.1,22.3h-0.6c0,5.9-2.3,11.1-6.1,15c-3.7,3.8-8.9,6.2-14.6,6.2s-10.9-2.4-14.6-6.2s-6.1-9.1-6.1-15
			s2.3-11.1,6.1-15c3.7-3.8,8.9-6.2,14.6-6.2s10.9,2.4,14.6,6.2s6.1,9.1,6.1,15H43.1h0.6c0-6.2-2.4-11.7-6.4-15.8
			c-4-4-9.4-6.5-15.5-6.5c-6,0-11.5,2.5-15.4,6.5c-4,4-6.4,9.6-6.4,15.8S2.4,34,6.4,38.1c3.9,4,9.4,6.5,15.4,6.5s11.5-2.5,15.4-6.5
			c4-4,6.4-9.6,6.4-15.8H43.1z"/>
		<path class="st0" d="M33.8,14.1c-1.3,0-2.4,1-2.4,2.4c0,0.3,0.1,0.7,0.2,1L24,25.2c-0.3-0.1-0.7-0.2-1-0.2s-0.7,0.1-1,0.2
			l-2.8-2.8c0.1-0.3,0.2-0.6,0.2-0.9c0-1.3-1-2.4-2.4-2.4s-2.4,1-2.4,2.4c0,0.3,0.1,0.7,0.2,0.9L11.1,26c-0.3-0.2-0.8-0.3-1.2-0.3
			c-1.3,0-2.4,1-2.4,2.4c0,1.3,1,2.4,2.4,2.4s2.4-1,2.4-2.4c0-0.2,0-0.5-0.1-0.7l3.7-3.7c0.3,0.1,0.6,0.2,0.9,0.2s0.7-0.1,0.9-0.2
			l2.8,2.8c-0.1,0.2-0.2,0.6-0.2,0.9c0,1.3,1,2.4,2.4,2.4c1.3,0,2.4-1,2.4-2.4c0-0.3-0.1-0.6-0.2-0.9l7.7-7.7
			c0.2,0.1,0.6,0.1,0.9,0.1c1.3,0,2.4-1,2.4-2.4C36.3,15.2,35.2,14.1,33.8,14.1z"/>
	</g>
	<g>
		<path class="st0" d="M493.7,8.6c0-0.9,0.2-1.7,0.7-2.6c0.5-0.8,1-1.4,1.9-1.9c0.8-0.5,1.6-0.7,2.6-0.7s1.7,0.2,2.6,0.7
			c0.8,0.5,1.4,1,1.9,1.9c0.5,0.8,0.7,1.6,0.7,2.6s-0.2,1.7-0.7,2.4c-0.5,0.8-1,1.4-1.9,1.9c-0.8,0.5-1.6,0.7-2.6,0.7
			c-0.9,0-1.7-0.2-2.6-0.7c-0.8-0.5-1.4-1-1.9-1.9C494,10.3,493.7,9.5,493.7,8.6z M494.3,8.6c0,0.8,0.2,1.5,0.6,2.2
			c0.3,0.7,0.9,1.2,1.6,1.6c0.7,0.3,1.4,0.6,2.2,0.6s1.5-0.2,2.2-0.6c0.7-0.3,1.2-0.9,1.6-1.6c0.5-0.7,0.6-1.4,0.6-2.2
			s-0.2-1.5-0.6-2.2c-0.3-0.7-0.9-1.2-1.6-1.6s-1.4-0.6-2.2-0.6c-0.8,0-1.5,0.2-2.2,0.6c-0.7,0.3-1.2,0.9-1.6,1.6
			C494.6,7.1,494.3,7.8,494.3,8.6z M500.5,7.3c0,0.3-0.1,0.7-0.2,0.9s-0.5,0.5-0.7,0.6l1.6,2.7h-0.9l-1.4-2.4h-1.2v2.4H497V5.6h1.4
			c0.6,0,1.2,0.1,1.5,0.5C500.4,6.4,500.5,6.7,500.5,7.3z M497.8,8.6h0.7c0.3,0,0.7-0.1,0.9-0.3c0.2-0.2,0.3-0.5,0.3-0.9
			c0-0.8-0.5-1.2-1.3-1.2h-0.7L497.8,8.6L497.8,8.6z"/>
	</g>
</g>
</svg>
