<svg xmlns="http://www.w3.org/2000/svg" width="15.784" height="27.693" viewBox="0 0 15.784 27.693">
  <g id="Group_986" data-name="Group 986" transform="translate(-145.592 -88.811)">
    <g id="Group_983" data-name="Group 983" transform="translate(148.088 114.83)">
      <path id="Path_357" data-name="Path 357" d="M201.566,570.144h-9.117a.837.837,0,1,1,0-1.675h9.117a.837.837,0,0,1,0,1.675Z" transform="translate(-191.612 -568.469)"/>
    </g>
    <g id="Group_984" data-name="Group 984" transform="translate(152.647 107.97)">
      <path id="Path_358" data-name="Path 358" d="M276.481,450.544a.837.837,0,0,1-.837-.837v-6.86a.837.837,0,0,1,1.675,0v6.86A.837.837,0,0,1,276.481,450.544Z" transform="translate(-275.644 -442.01)"/>
    </g>
    <g id="Group_985" data-name="Group 985" transform="translate(145.592 100.462)">
      <path id="Path_359" data-name="Path 359" d="M153.53,312.278h-.091a7.846,7.846,0,0,1-7.846-7.846.837.837,0,0,1,1.675,0,6.172,6.172,0,0,0,6.172,6.172h.091a6.172,6.172,0,0,0,6.172-6.172.837.837,0,0,1,1.675,0,7.847,7.847,0,0,1-7.846,7.846Z" transform="translate(-145.592 -303.594)"/>
    </g>
    <path id="Path_360" data-name="Path 360" d="M211.652,88.811h-.091a4.513,4.513,0,0,0-4.513,4.513V101.3a4.513,4.513,0,0,0,4.513,4.513h.091a4.513,4.513,0,0,0,4.513-4.513V93.324A4.513,4.513,0,0,0,211.652,88.811ZM208.126,98a.4.4,0,1,1,.4-.4A.4.4,0,0,1,208.126,98Zm0-1.656a.4.4,0,1,1,.4-.4A.4.4,0,0,1,208.126,96.347Zm0-1.656a.4.4,0,1,1,.4-.4A.4.4,0,0,1,208.126,94.691Zm0-1.656a.4.4,0,1,1,.4-.4A.4.4,0,0,1,208.126,93.036Zm.886,4.165a.4.4,0,1,1,.4-.4A.4.4,0,0,1,209.013,97.2Zm0-1.656a.4.4,0,1,1,.4-.4A.4.4,0,0,1,209.013,95.544Zm0-1.656a.4.4,0,1,1,.4-.4A.4.4,0,0,1,209.013,93.889Zm0-1.656a.4.4,0,1,1,.4-.4A.4.4,0,0,1,209.013,92.233Zm.853,5.77a.4.4,0,1,1,.4-.4A.4.4,0,0,1,209.866,98Zm0-1.656a.4.4,0,1,1,.4-.4A.4.4,0,0,1,209.866,96.347Zm0-1.656a.4.4,0,1,1,.4-.4A.4.4,0,0,1,209.866,94.691Zm0-1.656a.4.4,0,1,1,.4-.4A.4.4,0,0,1,209.866,93.036Zm0-1.656a.4.4,0,1,1,.4-.4A.4.4,0,0,1,209.866,91.38Zm.886,5.82a.4.4,0,1,1,.4-.4A.4.4,0,0,1,210.752,97.2Zm0-1.656a.4.4,0,1,1,.4-.4A.4.4,0,0,1,210.752,95.544Zm0-1.656a.4.4,0,1,1,.4-.4A.4.4,0,0,1,210.752,93.889Zm0-1.656a.4.4,0,1,1,.4-.4A.4.4,0,0,1,210.752,92.233Zm0-1.656a.4.4,0,1,1,.4-.4A.4.4,0,0,1,210.752,90.577ZM211.605,98a.4.4,0,1,1,.4-.4A.4.4,0,0,1,211.605,98Zm0-1.656a.4.4,0,1,1,.4-.4A.4.4,0,0,1,211.605,96.347Zm0-1.656a.4.4,0,1,1,.4-.4A.4.4,0,0,1,211.605,94.691Zm0-1.656a.4.4,0,1,1,.4-.4A.4.4,0,0,1,211.605,93.036Zm0-1.656a.4.4,0,1,1,.4-.4A.4.4,0,0,1,211.605,91.38Zm.886,5.82a.4.4,0,1,1,.4-.4A.4.4,0,0,1,212.492,97.2Zm0-1.656a.4.4,0,1,1,.4-.4A.4.4,0,0,1,212.492,95.544Zm0-1.656a.4.4,0,1,1,.4-.4A.4.4,0,0,1,212.492,93.889Zm0-1.656a.4.4,0,1,1,.4-.4A.4.4,0,0,1,212.492,92.233Zm0-1.656a.4.4,0,1,1,.4-.4A.4.4,0,0,1,212.492,90.577ZM213.345,98a.4.4,0,1,1,.4-.4A.4.4,0,0,1,213.345,98Zm0-1.656a.4.4,0,1,1,.4-.4A.4.4,0,0,1,213.345,96.347Zm0-1.656a.4.4,0,1,1,.4-.4A.4.4,0,0,1,213.345,94.691Zm0-1.656a.4.4,0,1,1,.4-.4A.4.4,0,0,1,213.345,93.036Zm0-1.656a.4.4,0,1,1,.4-.4A.4.4,0,0,1,213.345,91.38Zm.886,5.82a.4.4,0,1,1,.4-.4A.4.4,0,0,1,214.231,97.2Zm0-1.656a.4.4,0,1,1,.4-.4A.4.4,0,0,1,214.231,95.544Zm0-1.656a.4.4,0,1,1,.4-.4A.4.4,0,0,1,214.231,93.889Zm0-1.656a.4.4,0,1,1,.4-.4A.4.4,0,0,1,214.231,92.233Zm.853,5.77a.4.4,0,1,1,.4-.4A.4.4,0,0,1,215.084,98Zm0-1.656a.4.4,0,1,1,.4-.4A.4.4,0,0,1,215.084,96.347Zm0-1.656a.4.4,0,1,1,.4-.4A.4.4,0,0,1,215.084,94.691Zm0-1.656a.4.4,0,1,1,.4-.4A.4.4,0,0,1,215.084,93.036Z" transform="translate(-58.122)"/>
  </g>
</svg>
